<?xml version="1.0" encoding="utf-8"?>
<!-- Generator: Adobe Illustrator 18.1.0, SVG Export Plug-In . SVG Version: 6.00 Build 0)  -->
<!DOCTYPE svg PUBLIC "-//W3C//DTD SVG 1.1//EN" "http://www.w3.org/Graphics/SVG/1.1/DTD/svg11.dtd">
<svg version="1.1" id="Calque_1" xmlns="http://www.w3.org/2000/svg" xmlns:xlink="http://www.w3.org/1999/xlink" x="0px" y="0px"
	 viewBox="0 0 120.3 141" enable-background="new 0 0 120.3 141" xml:space="preserve">
<g>
	<path fill="#FCCA7D" d="M108.7,60.1c-2.4-6.6-6.4-12.7-11.7-17.7c-1.4-2.5-3-4.9-4.8-7.1C82.9,24.2,69.5,18.4,56,18.4
		c-10.7,0-21.5,3.6-30.4,11.1c-3.8,3.2-7,6.9-9.5,10.8c-2.1,2-3.8,4.3-5.2,6.7c0.2-0.6,0.4-1.2,0.6-1.7
		c7.5-21.1,27.4-34.2,48.6-34.2c1.4,0,2.8,0.1,4.3,0.2c11.9,2.2,23.1,8.3,31.5,18.3C102.6,37.6,106.5,48.8,108.7,60.1 M3.2,79.4
		C0,68.5,0.3,56.8,4.1,46.1C1.5,56.8,1.8,68.6,3.2,79.4 M62.7,124.9c-15.1-4-37.2-12.1-49.1-26.1c-0.3-0.3-0.6-0.7-0.8-1
		c-2.1-7.6-4.6-19-4.6-30.9c0.2,0.9,0.4,1.9,0.7,2.8c0.8,9.4,4.4,18.7,10.9,26.6c2.8,3.3,6.1,6.2,9.7,8.8c4,4.4,8.5,8.3,13.6,11.2
		c7.1,3.9,14.8,5.8,22.3,5.8c0.9,0,1.8,0,2.7-0.1C65.4,123.4,63.5,124.5,62.7,124.9 M83.1,128.7c-1.5,0-3-0.1-4.6-0.3
		c0,0-3-0.4-7.7-1.5c2.3-1.4,4.8-3,7.5-4.8c13.9-0.2,25.5-10.1,27.6-24.1c0.2-0.3,0.3-0.6,0.5-0.9c1.9-2.4,3.7-4.9,5.2-7.5
		c0.1,7.5-0.2,12.5-0.2,12.5C110.3,117.5,98,128.7,83.1,128.7"/>
</g>
<g>
	<path fill="#FAB941" d="M111.7,89.4c0-2.7-0.2-5.7-0.4-9c0.3-3.5,0.3-7-0.1-10.4c3.5-23.8-10.2-47.5-33.7-55.9
		c-4.3-1.6-8.7-2.5-13.1-2.9c-3.2-0.6-6.4-0.9-9.7-0.9c-12.2,0-24.5,4.1-34.5,12.6c-7.6,6.4-13,14.4-16.1,23.1
		c0.4-1.8,1-3.5,1.6-5.3C14.3,16.9,36.8,2,60.9,2c6.6,0,13.2,1.1,19.8,3.4c30.5,10.9,46.3,44.5,35.4,74.9
		C114.9,83.5,113.4,86.5,111.7,89.4 M88,107.7c2.6-2.2,5.1-4.6,7.5-7.2C93.3,103.2,90.8,105.6,88,107.7 M77.9,122
		c-1.5,0-3-0.1-4.5-0.3c0,0-0.5-0.1-1.3-0.2c4.1-0.6,8-1.7,11.8-3.3c-1.9,1.4-3.7,2.7-5.5,3.9C78.2,122,78,122,77.9,122 M43.5,137.3
		c-13.3,0-25.7-8-31.1-21.5c0,0-6.6-16.5-9.2-36.3c1.9,6.5,5.1,12.7,9.5,18.2c1.6,5.9,3.1,9.5,3.1,9.5c5.4,13.5,17.8,21.5,31.1,21.5
		c5.1,0,10.3-1.2,15.3-3.6c0,0,0.1-0.1,0.4-0.2c3.1,0.8,5.8,1.5,8.2,2c-7,4.3-12,6.8-12,6.8C53.8,136.1,48.6,137.3,43.5,137.3"/>
</g>
<g>
	<path fill="#EE7C10" d="M106.4,96.9c2.7-5.3,4.3-10.9,4.9-16.5c0.2,3.2,0.3,6.3,0.4,9C110.1,92,108.4,94.5,106.4,96.9 M12.8,97.7
		c-4.5-5.6-7.6-11.8-9.5-18.2C1.8,68.6,1.5,56.8,4.1,46.1c3.1-8.7,8.5-16.7,16.1-23.1c10.1-8.5,22.3-12.6,34.5-12.6
		c3.2,0,6.5,0.3,9.7,0.9c-1.4-0.1-2.8-0.2-4.3-0.2c-21.2,0-41,13.1-48.6,34.2c-0.2,0.6-0.4,1.2-0.6,1.7c-3.2,5.8-4.3,12.7-2.8,19.7
		C8.1,78.7,10.6,90.1,12.8,97.7 M70.8,126.9c-2.3-0.5-5.1-1.2-8.2-2c0.8-0.4,2.8-1.4,5.5-3c1.3-0.1,2.5-0.2,3.8-0.4
		c0.9,0.2,1.3,0.2,1.3,0.2c1.5,0.2,3.1,0.3,4.5,0.3c0.2,0,0.3,0,0.5,0C75.7,123.8,73.1,125.4,70.8,126.9"/>
</g>
<g>
	<path fill="#FFEB55" d="M82.7,39.1c-7.9-4.1-17.1-5.3-25.3-5.3c-11.6,0-21.1,2.4-22,2.6c2.4-2.7,4.1-4.2,4.1-4.2
		c0.6-0.5,1.3-1.1,1.9-1.5c4.9-0.7,10.9-1.3,17.3-1.3c5.6,0,11.4,0.5,16.9,1.7c2.1,1.7,4.1,3.7,5.8,6C81.4,37.2,81.9,37.9,82.7,39.1
		 M110.7,72.9c-0.4-4.2-1.1-8.5-1.9-12.9c1.2,3.2,2,6.6,2.4,10C111,71.1,110.9,72,110.7,72.9 M95.6,100.5c1.4-1.8,2.7-3.7,3.9-5.7
		c9.7-17.5,5.1-39-9.9-51.2c-2-4.1-4-7.5-5.4-9.7c1.3,0.6,2.6,1.2,3.8,1.8c3.4,1.9,6.4,4.1,9.1,6.6c7.5,13.7,9.1,32,9.4,43.1
		C103.6,90.9,99.8,95.9,95.6,100.5 M83.8,118.1c7.7-5.7,15.8-12.7,22.2-20.6c0,0.1,0,0.3-0.1,0.4c-0.1,0.1-0.1,0.3-0.2,0.4
		C100.6,107.5,92.8,114.3,83.8,118.1 M69.6,121c-7.8-1.6-26.1-6.2-40-16.1C16.2,90.2,9.2,70.6,9.2,70.6c-0.1-0.3-0.2-0.6-0.3-1
		c-0.8-10.2,1.6-20.5,7.2-29.3c3.4-3.3,7.7-5.8,12.8-7.1c0,0,2-0.5,5.2-1.2c-1.9,2.1-4,4.6-6.1,7.5c-11.6,6.8-17.1,20.8-12.3,34.3
		c0,0,0.1,0.4,0.4,1.1c1.3,16,12.1,29.8,27.3,35c0.3,0.2,0.6,0.4,0.9,0.5c6.2,3.5,13,5.1,19.7,5.1c8.6,0,17.1-2.8,24-7.9
		C81.3,113.5,74.5,118,69.6,121"/>
</g>
<g>
	<path fill="#F59E0A" d="M8.9,69.6c-0.3-0.9-0.5-1.9-0.7-2.8c0-6.6,0.8-13.4,2.8-19.7c1.4-2.5,3.1-4.7,5.2-6.7
		C10.5,49.1,8.1,59.4,8.9,69.6 M106.4,85.4c-0.2-11.1-1.9-29.4-9.4-43.1c5.3,5,9.3,11.1,11.7,17.7c0.9,4.3,1.5,8.7,1.9,12.9
		c-0.5,2.4-1.2,4.8-2,7.2C108,81.9,107.3,83.7,106.4,85.4 M105.9,97.9c0-0.1,0-0.3,0.1-0.4c0.1-0.2,0.3-0.4,0.4-0.5
		C106.3,97.3,106.1,97.6,105.9,97.9 M65.5,121.9c-7.6,0-15.2-1.9-22.3-5.8c-5.1-2.8-9.7-6.8-13.6-11.2c14,9.9,32.3,14.5,40,16.1
		c-0.5,0.3-1,0.6-1.4,0.8C67.3,121.9,66.4,121.9,65.5,121.9"/>
</g>
<g>
	<path fill="#F08800" d="M111.3,80.5c-0.2-2.4-0.4-4.9-0.6-7.5c0.2-0.9,0.4-1.9,0.5-2.8C111.6,73.5,111.7,77,111.3,80.5 M72,121.4
		c-0.6-0.1-1.4-0.3-2.4-0.5c4.9-3,11.8-7.5,18.5-13.3c2.8-2,5.3-4.4,7.5-7.2c4.2-4.5,8.1-9.6,10.8-15c0.1,6-0.1,9.9-0.1,9.9
		c-0.1,0.7-0.1,1.5-0.2,2.2c-6.4,7.9-14.6,15-22.2,20.6C80,119.8,76,120.9,72,121.4"/>
</g>
<g>
	<path fill="#E64111" d="M8.2,66.8c-1.5-7-0.4-13.9,2.8-19.7C8.9,53.4,8.2,60.2,8.2,66.8 M106,97.5c0.1-0.7,0.2-1.5,0.2-2.2
		c0,0,0.3-3.9,0.1-9.9c0.9-1.7,1.6-3.5,2.3-5.3c0.9-2.4,1.5-4.8,2-7.2c0.3,2.6,0.5,5.1,0.6,7.5c-0.6,5.6-2.2,11.2-4.9,16.5
		C106.3,97.1,106.1,97.3,106,97.5 M68.2,121.8c0.5-0.3,0.9-0.5,1.4-0.8c1,0.2,1.8,0.4,2.4,0.5C70.7,121.6,69.4,121.7,68.2,121.8"/>
</g>
<g>
	<path fill="#F8BC80" d="M84.1,33.9c-2.7-1.1-5.5-2-8.5-2.7c-5.1-3.9-11.1-6-17.3-6c-5.8,0-11.7,1.8-16.9,5.6
		c-2.9,0.4-5.3,0.9-7.4,1.3c3.5-3.9,6.1-6.1,6.1-6.1c5.6-4.8,12.2-7.1,18.8-7.1c8.7,0,17.4,4.1,23.1,12
		C82.1,30.8,82.9,31.9,84.1,33.9 M56.5,112.1c-1.9,0-3.8-0.1-5.7-0.4c-2.6-0.4-5.1-1-7.4-1.8c-16.6-9.8-25.4-30.1-27.3-35
		c-0.2-2.9-0.2-6,0.3-9c1.4-10.1,6.5-19.3,11.6-26.3c2.2-1.3,4.7-2.3,7.3-3c0,0,0,0,0.1,0c-4.8,5.4-12.2,15.6-14,28.6
		c-2.7,19.5,10.9,37.6,30.4,40.3c1.7,0.2,3.3,0.3,5,0.3c17.5,0,32.8-12.9,35.3-30.7c2.2-15.7-6-30.7-9.3-35.9c0.3,0.2,0.7,0.3,1,0.5
		c2.1,1.2,4,2.5,5.8,3.9c4.4,9,8.8,21.6,7.1,33.6C93.7,97.4,76.4,112.1,56.5,112.1"/>
</g>
<g>
	<path fill="#F8AE00" d="M28,39.6c2.1-2.9,4.3-5.4,6.1-7.5c2-0.4,4.5-0.9,7.4-1.3c-0.7,0.5-1.3,1-1.9,1.5c0,0-1.7,1.5-4.1,4.2
		c0,0-0.1,0-0.1,0C32.7,37.2,30.2,38.3,28,39.6 M89.5,43.6c-1.8-1.4-3.7-2.8-5.8-3.9c-0.3-0.2-0.7-0.4-1-0.5
		c-0.8-1.2-1.3-1.9-1.3-1.9c-1.7-2.3-3.7-4.3-5.8-6c2.9,0.7,5.8,1.5,8.5,2.7C85.5,36.1,87.5,39.5,89.5,43.6 M43.4,109.9
		c-15.3-5.2-26-19-27.3-35C18,79.8,26.8,100.1,43.4,109.9"/>
</g>
<g>
	<path fill="#0B1742" d="M57,103c-1.2,0-2.3-0.1-3.5-0.2C35.3,100.9,22.1,84.6,24,66.4c1.8-17,16.2-29.7,32.9-29.7
		c1.2,0,2.3,0.1,3.5,0.2c18.2,1.9,31.4,18.2,29.5,36.4C88.1,90.3,73.8,103,57,103"/>
</g>
<g>
	<path fill="#D10A11" d="M35,56.7h7.9c1,0,1.6,0.5,2,1.5c0,0.1,0.1,0.2,0.1,0.4v8h-2v-7.1c0-0.4-0.2-0.7-0.6-0.8c-0.1,0-0.2,0-0.3,0
		h-1.1v7.9h-2v-7.9h-2v7.9h-2V56.7z"/>
</g>
<g>
	<path fill="#D10A11" d="M46,56.7h2v7.1c0,0.4,0.2,0.7,0.6,0.8c0.1,0,0.2,0,0.3,0H52v-7.9h2v11c0,0.8-0.4,1.4-1.3,1.8
		c-0.2,0.1-0.4,0.1-0.7,0.1H48v-2h3.2c0.4,0,0.6-0.3,0.7-0.8v-0.2H48c-1,0-1.6-0.5-2-1.5c0-0.1-0.1-0.2-0.1-0.4V56.7z"/>
</g>
<g>
	<path fill="#FFFFFF" d="M57,56.7h4v2h-3.1c-0.4,0-0.6,0.1-0.8,0.4C57,59.2,57,59.4,57,59.5V60c0,0.4,0.3,0.7,0.8,0.7H60
		c0.8,0,1.4,0.4,1.8,1.3c0.1,0.3,0.1,0.6,0.1,0.9v1.6c0,1-0.4,1.7-1.3,2c-0.2,0.1-0.4,0.1-0.7,0.1h-5v-2h4.1c0.4,0,0.7-0.2,0.8-0.6
		c0-0.1,0-0.2,0-0.3v-0.2c0-0.4-0.2-0.7-0.6-0.8c-0.1,0-0.2,0-0.3,0H57c-1,0-1.6-0.5-2-1.5c0-0.1-0.1-0.2-0.1-0.4v-2.1
		c0-0.8,0.4-1.4,1.3-1.8C56.4,56.8,56.7,56.7,57,56.7z"/>
</g>
<g>
	<path fill="#FFFFFF" d="M63.9,56.7h4.9c1,0,1.6,0.5,2,1.5c0,0.1,0.1,0.2,0.1,0.4v6.2c0,0.7-0.4,1.3-1.2,1.7
		c-0.3,0.1-0.5,0.1-0.7,0.1h-4c-1,0-1.6-0.5-2-1.5c0-0.1-0.1-0.2-0.1-0.4v-2.1c0-0.8,0.4-1.4,1.3-1.8c0.2-0.1,0.4-0.1,0.7-0.1h2.9v2
		h-2.1c-0.4,0-0.7,0.2-0.8,0.6c0,0.1,0,0.2,0,0.3v0.2c0,0.4,0.2,0.7,0.6,0.8c0.1,0,0.2,0,0.3,0H68c0.6,0,0.9-0.3,0.9-0.9v-4.1
		c0-0.4-0.2-0.7-0.6-0.8c-0.1,0-0.2,0-0.3,0h-4.1V56.7z"/>
</g>
<g>
	<path fill="#FFFFFF" d="M73.9,56.7h4v2h-3.1c-0.4,0-0.6,0.1-0.8,0.4c-0.1,0.1-0.1,0.2-0.1,0.3V60c0,0.4,0.3,0.7,0.8,0.7h2.1
		c0.8,0,1.4,0.4,1.8,1.3c0.1,0.3,0.1,0.6,0.1,0.9v1.6c0,1-0.4,1.7-1.3,2c-0.2,0.1-0.4,0.1-0.7,0.1h-5v-2H76c0.4,0,0.7-0.2,0.8-0.6
		c0-0.1,0-0.2,0-0.3v-0.2c0-0.4-0.2-0.7-0.6-0.8c-0.1,0-0.2,0-0.3,0h-2.1c-1,0-1.6-0.5-2-1.5c0-0.1-0.1-0.2-0.1-0.4v-2.1
		c0-0.8,0.4-1.4,1.3-1.8C73.4,56.8,73.6,56.7,73.9,56.7z"/>
</g>
<g>
	<path fill="#FFFFFF" d="M36.8,73.8h6.7V76h-5.7c-0.5,0-0.8,0.2-0.9,0.6c0,0.1,0,0.3,0,0.3v4.7c0,0.5,0.2,0.8,0.6,0.9
		c0.1,0,0.2,0,0.3,0h5.7V85h-6.7c-1.1,0-1.8-0.6-2.2-1.7c0-0.1-0.1-0.3-0.1-0.5V76c0-0.9,0.5-1.6,1.4-2
		C36.1,73.9,36.4,73.8,36.8,73.8z"/>
</g>
<g>
	<path fill="#FFFFFF" d="M46.9,73.8H49V76h-1.3c-0.5,0-0.8,0.2-0.9,0.6c0,0.1,0,0.2,0,0.3V85h-2.2v-9c0-0.9,0.5-1.6,1.4-2
		C46.2,73.9,46.5,73.8,46.9,73.8z"/>
</g>
<g>
	<path fill="#FFFFFF" d="M52.3,73.8h4.5c1.1,0,1.8,0.6,2.2,1.7c0,0.1,0.1,0.3,0.1,0.5v2.4c0,0.9-0.5,1.6-1.4,2
		c-0.2,0.1-0.5,0.2-0.8,0.2h-3.3v-2.2h2.3c0.5,0,0.8-0.2,0.9-0.6c0-0.1,0-0.3,0-0.3V77c0-0.5-0.2-0.8-0.6-0.9c-0.1,0-0.2,0-0.3,0
		h-2.5c-0.7,0-1,0.4-1,1.1v4.7c0,0.5,0.2,0.8,0.6,0.9c0.1,0,0.2,0,0.3,0H58V85h-5.6c-1.1,0-1.8-0.6-2.2-1.7c0-0.1-0.1-0.3-0.1-0.5
		v-6.9c0-0.8,0.5-1.4,1.4-1.9C51.9,73.8,52.1,73.8,52.3,73.8z"/>
</g>
<g>
	<path fill="#FFFFFF" d="M68.1,69.4h2.2v13.5c0,0.9-0.5,1.6-1.4,2c-0.2,0.1-0.5,0.2-0.8,0.2h-5.6c-0.9,0-1.6-0.5-2-1.4
		c-0.1-0.3-0.2-0.7-0.2-1v-6.2c0-1.1,0.5-1.9,1.4-2.3c0.2-0.1,0.5-0.2,0.7-0.2H67V76h-3.4c-0.4,0-0.7,0.1-0.9,0.4
		c-0.1,0.1-0.1,0.3-0.1,0.4v5c0,0.5,0.3,0.8,0.9,0.8h3.6c0.5,0,0.8-0.2,0.9-0.6c0-0.1,0-0.3,0-0.4V69.4z"/>
</g>
<g>
	<path fill="#FFFFFF" d="M71.5,69.4h2.2v2.2h-2.2V69.4z M71.5,73.8h2.2V85h-2.2V73.8z"/>
</g>
<g>
	<path fill="#FFFFFF" d="M76,69.4h2.2v4.5h2.2V76h-2.2V85H76V76h-1.1v-2.2H76V69.4z"/>
</g>
<g>
	<path fill-rule="evenodd" clip-rule="evenodd" fill="none" d="M141,69.7c0,42.5-35.7,77-79.7,77s-79.7-34.5-79.7-77
		c0-42.5,35.7-77,79.7-77S141,27.2,141,69.7"/>
</g>
</svg>
