<?xml version="1.0" standalone="no"?>
<!DOCTYPE svg PUBLIC "-//W3C//DTD SVG 1.1//EN" "http://www.w3.org/Graphics/SVG/1.1/DTD/svg11.dtd" >
<svg xmlns="http://www.w3.org/2000/svg">
<metadata></metadata>
<defs>
<font id="encode_sans_widemedium" horiz-adv-x="1357" >
<font-face units-per-em="2048" ascent="1638" descent="-410" />
<missing-glyph horiz-adv-x="495" />
<glyph unicode="&#xfb01;" horiz-adv-x="1476" d="M33 901v205h268v47q0 150 27.5 247t96.5 155.5t184.5 83t289.5 28.5l12 -172q-113 -6 -184.5 -20.5t-113.5 -47t-58 -87t-16 -142.5v-92h321v-205h-321v-901h-240v901h-266zM1063 1444q0 72 32.5 104.5t106.5 32.5t107.5 -34t33.5 -103q0 -66 -33.5 -100.5t-107.5 -34.5 t-106.5 31.5t-32.5 103.5zM1081 0v1106h242v-1106h-242z" />
<glyph unicode="&#xfb02;" horiz-adv-x="1480" d="M33 901v205h268v47q0 150 27.5 247t96.5 155.5t184.5 83t289.5 28.5l12 -172q-113 -6 -184.5 -20.5t-113.5 -47t-58 -87t-16 -142.5v-92h321v-205h-321v-901h-240v901h-266zM1079 0v1655h240v-1655h-240z" />
<glyph unicode="&#xfb03;" horiz-adv-x="2369" d="M33 901v205h268v47q0 150 27.5 247t96.5 155.5t184.5 83t289.5 28.5l12 -172q-113 -6 -184.5 -20.5t-113.5 -47t-58 -87t-16 -142.5v-92h321v-205h-321v-901h-240v901h-266zM928 901v205h268v47q0 150 27.5 247t96.5 155.5t184.5 83t289.5 28.5l12 -172 q-113 -6 -184.5 -20.5t-113.5 -47t-58 -87t-16 -142.5v-92h321v-205h-321v-901h-240v901h-266zM1954 1444q0 72 32.5 104.5t106.5 32.5t107.5 -34t33.5 -103q0 -66 -33.5 -100.5t-107.5 -34.5t-106.5 31.5t-32.5 103.5zM1972 0v1106h242v-1106h-242z" />
<glyph unicode="&#xfb04;" horiz-adv-x="2371" d="M33 901v205h268v47q0 150 27.5 247t96.5 155.5t184.5 83t289.5 28.5l12 -172q-113 -6 -184.5 -20.5t-113.5 -47t-58 -87t-16 -142.5v-92h321v-205h-321v-901h-240v901h-266zM928 901v205h268v47q0 150 27.5 247t96.5 155.5t184.5 83t289.5 28.5l12 -172 q-113 -6 -184.5 -20.5t-113.5 -47t-58 -87t-16 -142.5v-92h321v-205h-321v-901h-240v901h-266zM1972 0v1655h240v-1655h-240z" />
<glyph horiz-adv-x="0" />
<glyph unicode="&#xd;" horiz-adv-x="624" />
<glyph horiz-adv-x="0" />
<glyph horiz-adv-x="0" />
<glyph unicode=" "  horiz-adv-x="495" />
<glyph unicode="&#x09;" horiz-adv-x="495" />
<glyph unicode="&#xa0;" horiz-adv-x="495" />
<glyph unicode="!" horiz-adv-x="571" d="M164 121q0 57 33.5 89t93.5 32q59 0 93 -32t34 -89q0 -59 -34 -91t-93 -32t-93 31.5t-34 91.5zM170 1495v21h233v-21l-45 -1055v-26h-147v26z" />
<glyph unicode="&#x22;" horiz-adv-x="862" d="M139 983v672h201v-8l-74 -664h-127zM555 983v672h201v-8l-74 -664h-127z" />
<glyph unicode="#" horiz-adv-x="1290" d="M104 432v158h211l27 330h-238v161h252l35 435h172l-35 -435h279l37 435h170l-35 -435h205v-161h-219l-27 -330h246v-158h-258l-35 -432h-172l35 432h-279l-35 -432h-172l35 432h-199zM487 590h281l27 330h-281z" />
<glyph unicode="$" horiz-adv-x="1304" d="M94 39v201q309 -66 520 -66q358 0 359 219q0 66 -25.5 110t-72 73.5t-108.5 48t-136 32.5q-137 27 -234.5 67t-159 95t-90 129t-28.5 170q0 166 109.5 273.5t303.5 140.5v291h234v-279q78 -4 169 -17.5t210 -35.5v-201q-102 29 -217 44.5t-209 15.5q-162 0 -252 -60.5 t-90 -165.5q0 -53 17.5 -92t57.5 -70.5t104.5 -56t160.5 -47.5q113 -27 207 -59.5t161.5 -82.5t105.5 -124t38 -180q0 -184 -111.5 -290t-329.5 -134v-295h-231v287q-106 4 -229 19t-234 40z" />
<glyph unicode="%" horiz-adv-x="2174" d="M82 1053q0 242 106.5 362.5t305.5 120.5q201 0 306 -121t105 -362q0 -242 -105 -364t-306 -122q-199 0 -305.5 122t-106.5 364zM262 1053q0 -172 56.5 -249t175.5 -77q117 0 174 77t57 249t-57.5 249.5t-173.5 77.5q-119 0 -175.5 -77.5t-56.5 -249.5zM598 0l764 1516 h215l-764 -1516h-215zM1270 465q0 242 106.5 362.5t304.5 120.5q199 0 305.5 -120.5t106.5 -362.5q0 -244 -106.5 -364.5t-305.5 -120.5t-305 120.5t-106 364.5zM1450 465q0 -174 56 -251t175 -77q117 0 174.5 77t57.5 251q0 172 -57.5 249t-174.5 77q-119 0 -175 -77 t-56 -249z" />
<glyph unicode="&#x26;" horiz-adv-x="1622" d="M104 422q0 141 76 243.5t219 153.5q-70 76 -99.5 152t-29.5 168q0 193 139.5 298t395.5 105q182 0 412 -69l4 -13l-35 -153h-19q-193 66 -340 65q-309 0 -309 -246q0 -63 25.5 -121.5t81 -114.5t143.5 -114.5t211 -122.5l227 -118q12 76 13 165v170h223v-168 q0 -150 -35 -272l188 -96v-21l-94 -157h-18l-162 88q-88 -131 -237.5 -199t-358.5 -68q-143 0 -258 31t-196 89.5t-124 140t-43 184.5zM354 434q0 -133 102.5 -211t282.5 -78q289 0 402 197l-273 150q-102 55 -182 105t-145 97q-186 -78 -187 -260z" />
<glyph unicode="'" horiz-adv-x="444" d="M139 983v672h201v-8l-74 -664h-127z" />
<glyph unicode="(" horiz-adv-x="659" d="M92 725q0 287 81 555t239 498h215v-9q-160 -225 -249 -491t-89 -553t89 -553t249 -491v-9h-215q-158 229 -239 498.5t-81 554.5z" />
<glyph unicode=")" horiz-adv-x="657" d="M33 -319q160 225 248 491t88 553t-88 553t-248 491v9h215q158 -229 237.5 -497.5t79.5 -555.5q0 -285 -79.5 -554t-237.5 -499h-215v9z" />
<glyph unicode="*" horiz-adv-x="1030" d="M92 1339l43 136l156 -50l192 -104l-39 219v162h144v-162l-41 -217l192 102l154 50l45 -136l-154 -49l-217 -26l158 -152l96 -133l-114 -82l-95 129l-98 205l-96 -205l-94 -129l-115 82l96 133l158 152l-217 26z" />
<glyph unicode="+" horiz-adv-x="1026" d="M92 680v156h342v342h158v-342h342v-156h-342v-342h-158v342h-342z" />
<glyph unicode="," horiz-adv-x="534" d="M70 -297l92 555h244l-154 -575z" />
<glyph unicode="-" horiz-adv-x="1062" d="M139 479v189h785v-189h-785z" />
<glyph unicode="." horiz-adv-x="532" d="M121 127q0 72 40 104.5t105 32.5q66 0 107 -33.5t41 -103.5q0 -68 -41 -102.5t-107 -34.5t-105.5 34.5t-39.5 102.5z" />
<glyph unicode="/" horiz-adv-x="894" d="M61 -246l562 1762h211l-562 -1762h-211z" />
<glyph unicode="0" horiz-adv-x="1474" d="M111 756q0 391 161.5 585.5t464.5 194.5q305 0 466 -194.5t161 -585.5q0 -389 -161 -584t-466 -195q-303 0 -464.5 195t-161.5 584zM352 756q0 -305 95 -442.5t290 -137.5q193 0 288 137.5t95 442.5t-95 443t-288 138q-195 0 -290 -138t-95 -443z" />
<glyph unicode="1" horiz-adv-x="919" d="M43 1243v8l487 265h187v-1516h-244v1247h-8l-381 -153h-14z" />
<glyph unicode="2" horiz-adv-x="1247" d="M94 4v201q0 111 35 192.5t97.5 146t150.5 118t194 106.5q80 39 138.5 76t97.5 74.5t58.5 79.5t19.5 94q0 123 -77 180t-239 57q-98 0 -204.5 -15.5t-200.5 -37.5l-21 205q143 29 254 40t213 11q266 0 391 -104.5t125 -317.5q0 -90 -25.5 -158.5t-75.5 -126t-123 -106.5 t-165 -98q-178 -92 -273 -171t-95 -176v-77h764v-193h-1039z" />
<glyph unicode="3" horiz-adv-x="1196" d="M117 8v189h8q27 -6 67.5 -11.5t87 -9.5t90.5 -6t76 -2q207 0 297.5 65.5t90.5 202.5q0 127 -85 184.5t-286 57.5h-166v180h164q180 0 257 57.5t77 184.5q0 125 -80 183t-260 58q-59 0 -148.5 -8t-181.5 -20h-8v188q37 6 85 13.5t98 11.5t99.5 7t87.5 3q274 0 417 -106.5 t143 -311.5q0 -125 -64.5 -212t-183.5 -122v-14q135 -29 211.5 -122t76.5 -228q0 -217 -153.5 -330t-450.5 -113q-47 0 -98 2.5t-100 6.5t-93.5 10t-74.5 12z" />
<glyph unicode="4" d="M47 479v17l510 1040h8l234 -29l8 -26l-504 -946v-9h514l62 457h168v-457h251v-192h-251v-334h-238v334h-725z" />
<glyph unicode="5" horiz-adv-x="1204" d="M109 8v189h49q78 -14 149.5 -21.5t138.5 -7.5q209 0 310.5 62.5t101.5 228.5q0 70 -29.5 117t-92 74.5t-162 39.5t-238.5 17l-166 4l-27 26l60 779h837v-193h-655l-27 -424q193 -2 334.5 -24.5t235.5 -73.5t140 -137t46 -213q0 -135 -49 -226.5t-135 -145.5t-202 -78 t-249 -24q-90 0 -184 8.5t-186 22.5z" />
<glyph unicode="6" horiz-adv-x="1380" d="M111 674q0 418 199.5 641t580.5 223q72 0 145.5 -9t159.5 -28l-22 -180q-84 18 -148.5 26.5t-128.5 8.5q-487 0 -537 -555q84 66 191.5 102.5t218.5 36.5q123 0 220 -30.5t167 -89t106.5 -141.5t36.5 -185q0 -117 -40.5 -212.5t-116.5 -163t-183.5 -104.5t-240.5 -37 q-299 0 -453.5 174.5t-154.5 522.5zM356 641q4 -252 92.5 -368.5t270.5 -116.5q156 0 243 88t87 245q0 141 -85 216t-245 75q-96 0 -195.5 -37.5t-167.5 -101.5z" />
<glyph unicode="7" horiz-adv-x="1120" d="M49 1495l17 21h976l43 -127v-43l-575 -1348l-59 -33l-205 35v31l569 1274h-752z" />
<glyph unicode="8" horiz-adv-x="1382" d="M104 393q0 86 26 149.5t66 111.5t88 80t95 52q-47 25 -88 56.5t-71 75t-46 99.5t-16 128q0 94 41 167.5t113.5 123t173 75t221.5 25.5q119 0 214 -25.5t162.5 -75t104.5 -123t37 -169.5q0 -74 -19.5 -132.5t-52.5 -102.5t-75 -75.5t-87 -54.5q59 -23 111.5 -54.5 t90.5 -75.5t60.5 -103.5t22.5 -136.5q0 -203 -145.5 -312.5t-438.5 -109.5q-588 0 -588 407zM338 418q0 -135 97 -196.5t257 -61.5t256 60.5t96 176.5q0 72 -31.5 120t-86 80t-124 54.5t-143.5 40.5l-102 27q-31 -14 -68.5 -37t-71.5 -58.5t-56.5 -87t-22.5 -118.5z M377 1133q0 -72 33.5 -118t89 -78t127 -53.5t147.5 -39.5l33 -8q29 16 63.5 40.5t65.5 60.5t51.5 83t20.5 106q0 119 -89.5 177.5t-226.5 58.5q-135 0 -225 -56.5t-90 -172.5z" />
<glyph unicode="9" horiz-adv-x="1382" d="M82 1022q0 117 41 212t116.5 162.5t183.5 104.5t241 37q299 0 453.5 -174t154.5 -522q0 -418 -200 -641.5t-580 -223.5q-72 0 -146 9.5t-160 27.5l23 181q84 -18 148.5 -26.5t127.5 -8.5q487 0 537 555q-84 -66 -191.5 -103t-218.5 -37q-123 0 -220 31t-166.5 89.5 t-106.5 141.5t-37 185zM334 1026q0 -141 85 -216t245 -75q96 0 195 38t167 101q-4 252 -92 369t-270 117q-156 0 -243 -88t-87 -246z" />
<glyph unicode=":" horiz-adv-x="552" d="M131 127q0 72 40 104.5t105 32.5q66 0 107 -33.5t41 -103.5q0 -68 -41 -102.5t-107 -34.5t-105.5 34.5t-39.5 102.5zM131 979q0 72 40 104.5t105 32.5q66 0 107 -33.5t41 -103.5q0 -68 -41 -102.5t-107 -34.5t-105.5 34.5t-39.5 102.5z" />
<glyph unicode=";" horiz-adv-x="600" d="M106 -297l93 555h243l-153 -575zM166 979q0 72 40 104.5t105 32.5q66 0 107 -33.5t41 -103.5q0 -68 -41 -102.5t-107 -34.5t-105.5 34.5t-39.5 102.5z" />
<glyph unicode="&#x3c;" horiz-adv-x="1087" d="M90 674v149l850 373v-172l-633 -276l631 -277v-170z" />
<glyph unicode="=" horiz-adv-x="1103" d="M145 424v160h816v-160h-816zM145 866v160h816v-160h-816z" />
<glyph unicode="&#x3e;" horiz-adv-x="1089" d="M150 1024v172l849 -373v-149l-847 -373v170l630 277z" />
<glyph unicode="?" horiz-adv-x="978" d="M68 1485q90 23 182 36t190 13q96 0 181.5 -22.5t147.5 -70.5t99 -124t37 -184q0 -100 -35.5 -174t-93 -124.5t-131.5 -82t-149 -50.5l-7 -272v-35h-167v35l-17 381q68 14 136.5 36.5t122.5 57.5t89 84t35 121q0 68 -23.5 113t-63.5 72.5t-92 39t-108 11.5 q-82 0 -161.5 -13.5t-151.5 -29.5zM285 115q0 59 33.5 91t93.5 32q59 0 93 -32t34 -91q0 -57 -34 -89t-93 -32t-93 31.5t-34 89.5z" />
<glyph unicode="@" horiz-adv-x="1882" d="M102 532q0 197 60.5 352.5t172 265.5t272.5 168t364 58q188 0 335.5 -50t250 -147.5t155.5 -236.5t53 -317q0 -250 -102 -383t-295 -133q-61 0 -105 17t-72 45t-42 58.5t-16 59.5h-11q-27 -37 -65.5 -69t-84.5 -54.5t-97.5 -34.5t-100.5 -12q-131 0 -209 91t-78 267 q0 117 38 213t106.5 167t166 110t216.5 39q72 0 153.5 -17.5t163.5 -50.5l-82 -428q-6 -37 -11 -67.5t-5 -57.5q0 -72 32.5 -105.5t108.5 -33.5q113 0 174.5 96t61.5 283q0 293 -164 448.5t-475 155.5q-166 0 -298 -48t-225.5 -138.5t-142.5 -219.5t-49 -291 q0 -154 45 -275.5t129 -206.5t207 -129t276 -44q88 0 193.5 17.5t226.5 52.5l45 -144q-135 -37 -252 -56t-213 -19q-188 0 -338.5 55t-255 159.5t-161 253t-56.5 336.5zM639 477q0 -111 43 -168t123 -57q55 0 106.5 21.5t93.5 58.5t70.5 89t38.5 114l57 317 q-45 12 -83.5 19.5t-71.5 7.5q-82 0 -150.5 -31t-119 -84t-79 -127t-28.5 -160z" />
<glyph unicode="A" horiz-adv-x="1519" d="M10 0v16l565 1500h369l565 -1500v-16h-241l-158 420h-702l-156 -420h-242zM475 618h569l-167 441l-107 291h-22l-105 -293z" />
<glyph unicode="B" horiz-adv-x="1470" d="M182 10v1495q156 14 281 21.5t244 7.5q164 0 281.5 -23.5t192 -74t109.5 -128t35 -188.5q0 -133 -70.5 -223t-199.5 -119v-8q160 -31 240.5 -124t80.5 -243q0 -217 -154.5 -320t-473.5 -103q-135 0 -270.5 7t-295.5 23zM418 174q25 -4 53.5 -7t65 -5t85 -3t111.5 -1 q207 0 304.5 64.5t97.5 201.5q0 135 -89.5 198.5t-275.5 63.5h-352v-512zM418 852h334q180 0 256.5 57.5t76.5 196.5q0 70 -19 117t-63.5 76.5t-115 43t-170.5 13.5q-96 0 -168 -3t-131 -14v-487z" />
<glyph unicode="C" horiz-adv-x="1284" d="M102 754q0 393 182.5 589.5t544.5 196.5q74 0 171.5 -11t203.5 -28v-203q-127 20 -206.5 28.5t-143.5 8.5q-262 0 -382 -138t-120 -441q0 -299 116 -436.5t372 -137.5q37 0 87 3t101 9.5t98.5 14.5t77.5 16v-200q-41 -10 -88 -18.5t-96 -14.5t-95 -9t-85 -3 q-369 0 -553.5 193.5t-184.5 580.5z" />
<glyph unicode="D" horiz-adv-x="1617" d="M182 12v1501q63 4 131 7.5t133.5 6.5t124 5t101.5 2q436 0 640 -187.5t204 -588.5q0 -203 -51.5 -350.5t-160 -241.5t-277 -139t-404.5 -45q-70 0 -137.5 2t-126 6t-104.5 10t-73 12zM426 201q76 -12 139.5 -17.5t141.5 -5.5q147 0 253.5 33t174 103.5t99.5 180t32 263.5 q0 303 -133.5 439t-432.5 136q-53 0 -127.5 -4t-146.5 -10v-1118z" />
<glyph unicode="E" horiz-adv-x="1366" d="M182 0v1516h1063v-193h-819v-459h764v-194h-764v-477h838v-193h-1082z" />
<glyph unicode="F" horiz-adv-x="1312" d="M182 0v1516h1063v-193h-819v-485h739v-193h-739v-645h-244z" />
<glyph unicode="G" horiz-adv-x="1456" d="M102 754q0 391 193.5 588.5t581.5 197.5q104 0 216.5 -13.5t215.5 -41.5v-201q-139 27 -234.5 39t-181.5 12q-143 0 -245.5 -33.5t-168 -105.5t-96.5 -181.5t-31 -258.5q0 -299 120 -436.5t384 -137.5q47 0 113.5 5.5t128.5 15.5v567h227v-711q-53 -18 -114.5 -32.5 t-125 -24.5t-123 -16t-106.5 -6q-377 0 -565.5 193.5t-188.5 580.5z" />
<glyph unicode="H" horiz-adv-x="1699" d="M182 0v1516h244v-642h848v642h244v-1516h-244v682h-848v-682h-244z" />
<glyph unicode="I" horiz-adv-x="608" d="M182 0v1516h244v-1516h-244z" />
<glyph unicode="J" horiz-adv-x="606" d="M27 -326q45 98 75.5 182.5t49 167t26.5 171t8 194.5v1127h244v-1143q0 -104 -12 -194.5t-40 -179.5t-74 -185.5t-114 -212.5z" />
<glyph unicode="K" horiz-adv-x="1480" d="M182 0v1516h244v-650h301l438 650h275l-467 -670l-78 -51v-17l84 -51l496 -727h-275l-448 672h-326v-672h-244z" />
<glyph unicode="L" horiz-adv-x="1191" d="M182 0v1516h244v-1326h737v-190h-981z" />
<glyph unicode="M" horiz-adv-x="2037" d="M182 0v1516h332l360 -836l138 -356h14l137 356l361 836h331v-1516h-219v1239h-14l-190 -489l-310 -691h-207l-309 691l-192 489h-13v-1239h-219z" />
<glyph unicode="N" horiz-adv-x="1705" d="M182 0v1516h199l782 -984l131 -182h15v1166h217v-1516h-201l-778 979l-133 184h-15v-1163h-217z" />
<glyph unicode="O" horiz-adv-x="1648" d="M102 756q0 381 187.5 580.5t535.5 199.5q344 0 532.5 -199.5t188.5 -580.5t-188.5 -578.5t-532.5 -197.5q-348 0 -535.5 197.5t-187.5 578.5zM352 756q0 -297 115.5 -436.5t357.5 -139.5t357.5 139.5t115.5 436.5q0 299 -116.5 439t-356.5 140q-242 0 -357.5 -139 t-115.5 -440z" />
<glyph unicode="P" horiz-adv-x="1435" d="M182 0v1505q223 31 422 31q201 0 345.5 -30.5t237.5 -96.5t137 -167t44 -243q0 -274 -182 -405t-565 -131q-43 0 -90.5 2t-104.5 6v-471h-244zM426 678q16 -4 43 -7t58.5 -6t65 -5.5t64.5 -2.5q129 0 217.5 18.5t142.5 59.5t78.5 105.5t24.5 158.5q0 92 -24.5 157 t-79.5 107t-144.5 60t-216.5 18q-59 0 -123.5 -4t-105.5 -10v-649z" />
<glyph unicode="Q" horiz-adv-x="1644" d="M96 756q0 184 49.5 329.5t142.5 245t227 152.5t306 53t306.5 -52t227.5 -152.5t142 -246t49 -329.5q0 -170 -42 -303.5t-121.5 -225.5t-195.5 -140t-261 -48h-22.5t-24.5 2v-16q117 -23 201.5 -39.5t154.5 -26.5t132.5 -17.5t135.5 -13.5l-30 -207q-397 74 -662.5 161 t-424.5 207t-224.5 281.5t-65.5 385.5zM346 756q0 -576 475 -576t475 576q0 579 -473 579h-2q-475 0 -475 -579z" />
<glyph unicode="R" horiz-adv-x="1476" d="M182 0v1505q223 31 422 31q201 0 345.5 -28.5t237.5 -89t137 -155t44 -225.5q0 -346 -340 -452l404 -586h-277l-348 545q-43 -4 -90 -6t-96 -2q-35 0 -90.5 4t-104.5 8v-549h-244zM426 750q27 -8 90 -13t141 -6q127 0 215.5 16.5t143.5 53.5t79.5 95t24.5 142 q0 82 -25.5 139.5t-81 94.5t-144.5 53t-214 16q-57 0 -122.5 -4t-106.5 -10v-577z" />
<glyph unicode="S" horiz-adv-x="1300" d="M90 39v201q309 -66 520 -66q358 0 359 219q0 66 -25.5 110t-72 73.5t-109 48t-135.5 32.5q-137 27 -234.5 67t-159 95t-90 129t-28.5 170q0 98 40 177t115.5 135.5t181 86t238.5 29.5q94 0 199.5 -13t251.5 -42v-201q-102 29 -217 44.5t-209 15.5q-162 0 -252 -60.5 t-90 -165.5q0 -53 17.5 -92t57 -70.5t104 -56t161.5 -47.5q113 -27 207 -59.5t161.5 -82.5t105.5 -124t38 -180q0 -215 -151.5 -325t-450.5 -110q-55 0 -121 4.5t-135.5 12.5t-140 19.5t-136.5 25.5z" />
<glyph unicode="T" horiz-adv-x="1335" d="M39 1323v193h1259v-193h-507v-1323h-246v1323h-506z" />
<glyph unicode="U" horiz-adv-x="1662" d="M166 625v893h244v-895q0 -236 104 -339.5t317 -103.5q211 0 316.5 103.5t105.5 339.5v895h246v-893q0 -168 -37 -290t-117.5 -201t-208 -116.5t-305.5 -37.5t-305 37.5t-206.5 116.5t-116.5 201t-37 290z" />
<glyph unicode="V" horiz-adv-x="1505" d="M12 1516h262l365 -975l106 -305h19l104 305l369 975h258l-577 -1516h-328z" />
<glyph unicode="W" horiz-adv-x="2226" d="M39 1516h256l254 -984l67 -296h19l74 296l280 984h248l279 -984l77 -296h17l67 296l254 984h258l-417 -1516h-330l-258 901l-64 311h-14l-64 -313l-256 -899h-331z" />
<glyph unicode="X" horiz-adv-x="1486" d="M-2 0l590 788l-553 728h278l375 -510l45 -74h21l41 74l381 510h278l-563 -742l600 -774h-277l-421 565l-37 66h-21l-37 -66l-419 -565h-281z" />
<glyph unicode="Y" horiz-adv-x="1406" d="M2 1516h262l361 -648l67 -149h21l67 149l361 648h262l-576 -1012v-504h-243v498z" />
<glyph unicode="Z" horiz-adv-x="1314" d="M70 0v172l843 1133v12h-813v199h1117v-166l-840 -1139v-12h868v-199h-1175z" />
<glyph unicode="[" horiz-adv-x="710" d="M184 -328v2106h461v-166h-270v-1774h270v-166h-461z" />
<glyph unicode="\" horiz-adv-x="894" d="M61 1516h209l561 -1762h-208z" />
<glyph unicode="]" horiz-adv-x="708" d="M66 -162h270v1774h-270v166h460v-2106h-460v166z" />
<glyph unicode="^" horiz-adv-x="1089" d="M90 985l348 631h213l348 -631h-176l-274 467h-8l-273 -467h-178z" />
<glyph unicode="_" horiz-adv-x="1312" d="M111 -119h1093v-188h-1093v188z" />
<glyph unicode="`" horiz-adv-x="577" d="M66 1655h258l139 -377l-178 -21z" />
<glyph unicode="a" horiz-adv-x="1183" d="M82 287q0 166 102.5 250t329.5 100l285 22v50q0 68 -12.5 111.5t-43 71.5t-85 39t-140.5 11q-152 0 -352 -39l-19 174q121 23 220.5 32t197.5 9q242 0 357.5 -91t115.5 -282v-745h-194l-25 139h-14q-106 -78 -209 -113.5t-201 -35.5q-156 0 -234.5 75.5t-78.5 221.5z M326 311q0 -78 40 -112.5t126 -34.5q72 0 150.5 27.5t156.5 80.5v252l-209 -18q-74 -6 -125 -19.5t-82 -37t-44 -57.5t-13 -81z" />
<glyph unicode="b" horiz-adv-x="1351" d="M154 25v1630h239v-674q129 145 369 145q242 0 368.5 -137t126.5 -424q0 -150 -43 -260t-121.5 -183t-189.5 -109t-244 -36q-102 0 -219.5 9.5t-285.5 38.5zM393 170q47 -8 115.5 -14t146.5 -6q92 0 161 20t113 68.5t65.5 125t21.5 187.5q0 106 -17.5 180t-56.5 119 t-98.5 65.5t-143.5 20.5q-63 0 -118.5 -15.5t-97.5 -43t-66.5 -67.5t-24.5 -91v-549z" />
<glyph unicode="c" horiz-adv-x="1062" d="M96 551q0 573 559 573q80 0 165 -8t151 -24v-195q-72 12 -145.5 19.5t-145.5 7.5q-180 0 -263 -89.5t-83 -281.5q0 -197 80 -284t262 -87q88 0 154.5 5.5t140.5 19.5v-193q-57 -16 -143.5 -24t-172.5 -8q-559 0 -559 569z" />
<glyph unicode="d" horiz-adv-x="1353" d="M94 541q0 150 43 259t122 182t189.5 108.5t243.5 35.5q76 0 144.5 -7t121.5 -11v547h240v-1655h-207l-20 143h-17q-114 -163 -364 -163q-242 0 -369 136t-127 425zM336 553q0 -109 17.5 -182.5t56.5 -119.5t98 -66.5t143 -20.5q63 0 119.5 15.5t97.5 46t65.5 73.5 t24.5 98v531q-53 8 -123.5 15t-148.5 7q-90 0 -155.5 -20.5t-108.5 -67.5t-64.5 -122.5t-21.5 -186.5z" />
<glyph unicode="e" horiz-adv-x="1210" d="M96 543q0 283 140.5 432t408.5 149q471 0 471 -493q0 -47 -3 -85t-13 -67h-766q6 -84 29.5 -143.5t65.5 -96t105.5 -53t151.5 -16.5q90 0 192.5 14.5t188.5 38.5l10 -176q-94 -31 -206 -48t-216 -17q-559 0 -559 561zM334 625h565q-6 176 -66.5 250.5t-195.5 74.5 q-143 0 -218 -78.5t-85 -246.5z" />
<glyph unicode="f" horiz-adv-x="892" d="M35 901v205h268v47q0 150 27.5 247t96.5 155.5t184.5 83t289.5 28.5l12 -172q-113 -6 -184.5 -20.5t-113.5 -47t-58 -87t-16 -142.5v-92h321v-205h-321v-901h-240v901h-266z" />
<glyph unicode="g" horiz-adv-x="1351" d="M96 553q0 147 43 254.5t121 178.5t188.5 105.5t243.5 34.5q100 0 222 -14t286 -59v-942q0 -168 -50 -276.5t-134 -171t-192.5 -87.5t-225.5 -25q-113 0 -229.5 12.5t-196.5 33.5l14 180q74 -16 172.5 -30.5t196.5 -14.5q88 0 164 16t133 57t90 111t33 174v94h-14 q-117 -174 -369 -174q-242 0 -369 132t-127 411zM338 567q0 -102 17.5 -173.5t55.5 -116t97 -63.5t143 -19q66 0 122 16t98 47t66 76t24 102v492q-53 8 -125 15t-150 7q-178 0 -263 -86t-85 -297z" />
<glyph unicode="h" d="M156 0v1655h237v-678q168 76 285 112.5t215 36.5q152 0 234.5 -77.5t82.5 -231.5v-817h-239v735q0 109 -43 155t-133 46q-74 0 -179.5 -29.5t-222.5 -81.5v-825h-237z" />
<glyph unicode="i" horiz-adv-x="552" d="M137 1444q0 72 33 104.5t106 32.5q74 0 108 -34t34 -103q0 -66 -34 -100.5t-108 -34.5t-106.5 31.5t-32.5 103.5zM156 0v1106h241v-1106h-241z" />
<glyph unicode="j" horiz-adv-x="546" d="M31 -410q33 80 57.5 155t39.5 158t22.5 177t7.5 215v68.5v129v163.5t-1 174t-2 158t-1 118h239v-936q-10 -174 -56 -327.5t-128 -293.5zM129 1444q0 72 33 104.5t106 32.5q74 0 107 -34t33 -103q0 -66 -33 -100.5t-107 -34.5t-106.5 31.5t-32.5 103.5z" />
<glyph unicode="k" horiz-adv-x="1241" d="M156 0v1655h237v-1008h187l362 459h270l-421 -518l-43 -17v-8l45 -16l452 -547h-268l-402 492h-182v-492h-237z" />
<glyph unicode="l" horiz-adv-x="557" d="M158 0v1655h239v-1655h-239z" />
<glyph unicode="m" horiz-adv-x="1984" d="M156 0v1106h198l15 -131h14q131 76 229.5 113.5t188.5 37.5q104 0 178 -38.5t108 -114.5h9q137 80 237.5 116.5t186.5 36.5q150 0 233.5 -77.5t83.5 -231.5v-817h-240v731q0 109 -43 154t-133 45q-57 0 -136 -28t-167 -75v-827h-239v731q0 109 -42 154t-135 45 q-59 0 -141 -29t-166 -76v-825h-239z" />
<glyph unicode="n" d="M156 0v1106h198l15 -131h14q176 80 295 115.5t217 35.5q150 0 233.5 -77.5t83.5 -231.5v-817h-241v735q0 109 -42 155t-132 46q-78 0 -182.5 -31t-219.5 -80v-825h-239z" />
<glyph unicode="o" horiz-adv-x="1325" d="M92 553q0 279 147.5 426t424.5 147q276 0 421.5 -147.5t145.5 -425.5q0 -279 -145.5 -426t-421.5 -147t-424 147t-148 426zM336 553q0 -203 78 -294t250 -91t248.5 90t76.5 295q0 203 -76.5 293t-248.5 90t-250 -90t-78 -293z" />
<glyph unicode="p" d="M156 -451v1557h206l21 -139h14q118 159 362 159h3q244 0 371 -136t127 -425q0 -150 -43 -259t-122 -182t-188.5 -108.5t-242.5 -35.5q-78 0 -146.5 6t-122.5 10v-447h-239zM395 178q51 -8 123 -15t152 -7q178 0 263 88t85 309q0 213 -74 301t-239 88q-66 0 -123.5 -16.5 t-98.5 -46t-64.5 -73.5t-23.5 -99v-529z" />
<glyph unicode="q" horiz-adv-x="1351" d="M94 541q0 287 159 436t439 149q68 0 139.5 -4t138 -10t126 -14t104.5 -15v-1534h-229v596q-66 -86 -162 -125.5t-219 -39.5q-496 0 -496 561zM336 553q0 -209 71.5 -299t243.5 -90q141 0 225.5 66.5t84.5 177.5v520q-74 10 -141.5 16t-133.5 6q-186 0 -268 -92t-82 -305z " />
<glyph unicode="r" horiz-adv-x="894" d="M156 0v1106h198l15 -160h8q129 72 226 119t181 59h84v-206h-80q-96 -10 -197.5 -46t-195.5 -86v-786h-239z" />
<glyph unicode="s" horiz-adv-x="1073" d="M94 25v182q123 -25 224.5 -41t193.5 -16q246 0 246 151q0 43 -17.5 71.5t-48 47t-75 30t-97.5 19.5q-70 10 -142.5 25.5t-133 49.5t-98 95t-37.5 164q0 156 121.5 243t336.5 87q39 0 77 -2.5t82 -7.5t97.5 -13t124.5 -20l-12 -191q-115 25 -201 38t-153 13 q-242 0 -242 -143q0 -43 19.5 -70.5t55.5 -45t87 -28t114 -20.5q82 -12 151 -33.5t118 -59.5t76.5 -95.5t27.5 -139.5q0 -164 -119 -251t-348 -87q-84 0 -188.5 11.5t-239.5 36.5z" />
<glyph unicode="t" horiz-adv-x="897" d="M39 901v205h244l34 291l189 20v-311h332v-205h-330v-539q0 -104 44 -150t144 -46q72 0 154 27v-187q-51 -14 -113 -21.5t-121 -7.5q-172 0 -260 84t-88 248v592h-229z" />
<glyph unicode="u" d="M147 289v817h240v-741q0 -104 38 -149.5t126 -45.5q49 0 101.5 11.5t106.5 28.5t105 38.5t99 40.5v817h241v-1106h-200l-15 139h-8q-90 -43 -156.5 -72.5t-126 -49t-119 -28.5t-133.5 -9q-147 0 -223 79.5t-76 229.5z" />
<glyph unicode="v" horiz-adv-x="1249" d="M37 1073v33h254l264 -705l59 -217h25l59 217l269 705h247v-33l-438 -1073h-307z" />
<glyph unicode="w" horiz-adv-x="1748" d="M41 1094v12h238l194 -723l35 -162h14l37 162l207 723h213l215 -723l39 -162h16l33 162l182 723h238v-12l-316 -1094h-266l-207 676l-32 153h-17l-33 -153l-194 -676h-268z" />
<glyph unicode="x" horiz-adv-x="1236" d="M23 0v31l434 542l-412 514v19h254l238 -299l75 -109h15l78 109l231 299h256v-19l-412 -518l434 -538v-31h-251l-254 317l-86 123h-13l-84 -123l-252 -317h-251z" />
<glyph unicode="y" horiz-adv-x="1263" d="M31 1077v29h258l272 -664l64 -186h14l61 186l287 664h250v-29l-684 -1528l-219 33v25l178 407z" />
<glyph unicode="z" horiz-adv-x="1120" d="M80 2v154l629 749v15h-609v186h922v-148l-616 -753v-17h636v-186h-962z" />
<glyph unicode="{" horiz-adv-x="747" d="M74 631v192q145 0 145 203v492q0 141 51.5 200.5t173.5 59.5q18 0 53 -1t70 -3t63.5 -3.5t39.5 -3.5v-155h-162q-49 0 -70.5 -20.5t-21.5 -65.5v-551q0 -96 -44 -166t-122 -84q78 -10 122 -78.5t44 -165.5v-557q0 -45 21.5 -65.5t70.5 -20.5h162v-155q-10 -2 -38 -4.5 t-62.5 -3.5t-68.5 -2t-52 -1q-123 0 -176.5 59.5t-53.5 200.5v498q0 201 -145 201z" />
<glyph unicode="|" horiz-adv-x="591" d="M184 -451v2106h226v-2106h-226z" />
<glyph unicode="}" horiz-adv-x="747" d="M78 -162h162q49 0 70.5 20.5t21.5 65.5v557q0 96 44 165t122 79q-78 14 -122 84t-44 166v551q0 45 -21.5 65.5t-70.5 20.5h-162v155q8 2 37.5 3.5t64.5 3.5t70 3t53 1q123 0 175 -59.5t52 -200.5v-492q0 -203 144 -203v-192q-143 0 -144 -201v-498q0 -141 -53 -200.5 t-176 -59.5q-18 0 -52 1t-69 2t-64.5 3.5t-37.5 4.5v155z" />
<glyph unicode="~" horiz-adv-x="1433" d="M119 573q61 66 110.5 109t93.5 69.5t87 37t92 10.5q68 0 121 -24.5t102 -53.5t96 -53.5t103 -24.5q74 0 143.5 39t112.5 104l135 -79q-29 -43 -68 -89.5t-87 -83t-102 -60t-114 -23.5q-72 0 -129 24.5t-106.5 53t-93.5 53t-93 24.5q-70 0 -133 -33.5t-143 -111.5z" />
<glyph unicode="&#xa1;" horiz-adv-x="540" d="M147 985q0 59 34 91t93 32t93 -32t34 -91q0 -57 -33.5 -89t-93.5 -32q-59 0 -93 32t-34 89zM154 -389l41 1055v26h147v-26l45 -1055v-21h-233v21z" />
<glyph unicode="&#xa2;" horiz-adv-x="1099" d="M98 551q0 530 477 569v232h158v-230q63 -4 126 -12t114 -18v-195q-72 12 -145.5 19.5t-145.5 7.5q-180 0 -263 -89.5t-83 -281.5q0 -197 80 -284t262 -87q88 0 154.5 5.5t140.5 19.5v-193q-45 -12 -108.5 -19t-131.5 -11v-230h-158v232q-477 37 -477 565z" />
<glyph unicode="&#xa3;" horiz-adv-x="1433" d="M104 0v211h340v451h-340v192h340v207q0 236 126 352.5t399 116.5q86 0 171 -13.5t191 -43.5l-16 -195q-186 45 -324 45q-166 0 -234.5 -60.5t-68.5 -201.5v-207h463v-192h-463v-451h615v-211h-1199z" />
<glyph unicode="&#xa4;" horiz-adv-x="1329" d="M123 322l113 108l94 70q-102 102 -103 258q0 156 103 254l-94 73l-113 109l104 104l111 -112l80 -111q100 55 246 55q72 0 133 -14t112 -41l80 111l113 112l104 -104l-112 -109l-101 -73q49 -47 77 -111.5t28 -142.5q0 -158 -103 -256l99 -72l112 -108l-104 -105 l-113 113l-80 108q-51 -27 -111.5 -41t-131.5 -14q-72 0 -134.5 14.5t-113.5 40.5l-80 -108l-111 -113zM383 758q0 -117 77 -179.5t206 -62.5q127 0 201.5 61.5t74.5 180.5q0 113 -73.5 176t-202.5 63t-206 -61t-77 -178z" />
<glyph unicode="&#xa5;" horiz-adv-x="1525" d="M70 1516h262l360 -648l68 -149h20l68 149l360 648h262l-489 -861h301v-149h-387v-170h387v-152h-387v-184h-244v184h-450v152h450v170h-450v149h360z" />
<glyph unicode="&#xa6;" horiz-adv-x="595" d="M186 416h226v-867h-226v867zM186 788v867h226v-867h-226z" />
<glyph unicode="&#xa7;" horiz-adv-x="1134" d="M123 25v172q238 -51 416 -52q248 0 247 156q0 43 -17 71.5t-49 48t-76 31t-97 19.5q-68 10 -141.5 24.5t-133 48.5t-98.5 95t-39 164q0 66 24.5 119t65.5 94q-41 35 -65.5 86t-24.5 129q0 154 122 241t337 87q39 0 78 -2.5t82 -7.5t96 -12t125 -19l-10 -185 q-227 49 -355 49q-242 0 -241 -147q0 -43 19.5 -70.5t55 -45t87 -29t114.5 -21.5q82 -12 150.5 -34.5t118 -60.5t77 -94.5t27.5 -138.5q0 -139 -86 -221q41 -35 63.5 -84t22.5 -121q0 -164 -120 -251t-347 -87q-86 0 -189.5 11.5t-238.5 36.5zM369 821q0 -49 17 -80.5 t48 -52t74 -34t92 -23.5q29 -6 70.5 -17.5t68.5 -23.5q47 47 47 119q0 53 -16 87.5t-44 57.5t-68 35t-85 22q-29 6 -75.5 15.5t-71.5 19.5q-57 -43 -57 -125z" />
<glyph unicode="&#xa8;" horiz-adv-x="1075" d="M125 1454q0 125 129 125q131 0 131 -125q0 -131 -131 -131q-129 0 -129 131zM666 1454q0 125 129 125q131 0 131 -125q0 -131 -131 -131q-129 0 -129 131z" />
<glyph unicode="&#xa9;" horiz-adv-x="1728" d="M104 758q0 174 54.5 318.5t154 246.5t239.5 158.5t312 56.5t312.5 -56.5t240 -158.5t153.5 -246.5t54 -318.5q0 -176 -54 -319.5t-153.5 -246t-240 -159t-312.5 -56.5t-312 56.5t-239.5 159t-154 246t-54.5 319.5zM236 758q0 -147 44 -268t125.5 -206t197.5 -132.5 t261 -47.5q143 0 260 47.5t198 132.5t125 205.5t44 268.5q0 147 -44 268t-125 207t-197.5 133t-260.5 47q-145 0 -261 -47t-197.5 -133t-125.5 -207t-44 -268zM516 752q0 211 99.5 316.5t279.5 105.5q47 0 93 -5.5t87 -15.5v-129q-45 8 -87 13t-77 5q-244 0 -243 -288 q0 -150 62.5 -218.5t178.5 -68.5q72 0 168 18v-129q-80 -22 -182 -22q-180 0 -279.5 103.5t-99.5 314.5z" />
<glyph unicode="&#xaa;" horiz-adv-x="978" d="M90 942q0 104 87 166.5t253 73.5l213 12v35q0 45 -8 74.5t-30.5 47t-60.5 23.5t-95 6q-47 0 -113 -4t-152 -16l-16 137q92 16 170 23.5t141 7.5q195 0 279 -60.5t84 -193.5v-553h-168l-15 96h-8q-78 -49 -152.5 -76.5t-146.5 -27.5q-117 0 -189.5 62.5t-72.5 166.5z M291 956q0 -98 129 -98q45 0 97 13.5t126 46.5v157l-111 -6q-70 -4 -115.5 -12t-73.5 -21.5t-40 -33t-12 -46.5z" />
<glyph unicode="&#xab;" horiz-adv-x="1433" d="M66 549v8l426 487h251l-426 -487v-8l426 -488h-251zM666 549v8l426 487h251l-425 -487v-8l425 -488h-251z" />
<glyph unicode="&#xac;" horiz-adv-x="1771" d="M129 686v201h1487v-668h-236v467h-1251z" />
<glyph unicode="&#xad;" horiz-adv-x="1062" d="M139 479v189h785v-189h-785z" />
<glyph unicode="&#xae;" horiz-adv-x="1482" d="M115 913q0 137 46 253t129 199t197.5 130t253.5 47t255 -47t199 -130t129 -198.5t46 -253.5q0 -137 -46 -251.5t-129 -197.5t-199 -129t-255 -46t-253.5 46t-197.5 129t-129 197.5t-46 251.5zM227 913q0 -115 37 -210t104.5 -163.5t162.5 -106.5t210 -38t210.5 38 t163 106.5t105 164t37.5 209.5q0 115 -37.5 211.5t-105 165t-163 106.5t-210.5 38t-210 -38t-162.5 -106.5t-104.5 -165t-37 -211.5zM514 588v674q53 6 102.5 10t92.5 4q156 0 229.5 -53.5t73.5 -163.5q0 -152 -140 -197l-2 -6l162 -268h-119l-143 246h-145v-246h-111z M625 926q12 -2 41 -2h49q96 0 140 31.5t44 101.5q0 66 -41 97.5t-137 31.5q-16 0 -45 -1t-51 -3v-256z" />
<glyph unicode="&#xaf;" horiz-adv-x="1067" d="M131 1329v168h758v-168h-758z" />
<glyph unicode="&#xb0;" horiz-adv-x="1015" d="M86 1149q0 80 32 148.5t89 119.5t134 80t167 29t167 -29t133 -80t88 -119.5t32 -148.5t-32 -149.5t-88 -120t-133 -80t-167 -29.5t-167 29.5t-134 80t-89 120t-32 149.5zM250 1149q0 -104 70.5 -172t187.5 -68t187.5 67.5t70.5 172.5q0 104 -70.5 172t-187.5 68 t-187.5 -68t-70.5 -172z" />
<glyph unicode="&#xb1;" horiz-adv-x="1118" d="M145 797v155h336v342h156v-342h332v-155h-332v-332h-156v332h-336zM147 162v157h824v-157h-824z" />
<glyph unicode="&#xb2;" horiz-adv-x="983" d="M80 618v158q0 143 86 242.5t280 187.5q70 31 116 56.5t73 50t37 48t10 52.5q0 154 -231 154q-63 0 -137 -9.5t-179 -29.5l-22 174q115 23 202.5 33t165.5 10q406 0 406 -318q0 -115 -75 -198.5t-243 -161.5q-127 -61 -176 -112.5t-49 -114.5v-49h547v-173h-811z" />
<glyph unicode="&#xb3;" horiz-adv-x="937" d="M96 623v178h10q20 -4 53.5 -7t68 -6.5t69.5 -5.5t59 -2q156 0 222.5 43t66.5 133q0 78 -64.5 116t-213.5 38h-131v141h129q133 0 191 39t58 119q0 82 -58 121t-194 39q-43 0 -111.5 -6.5t-144.5 -16.5h-10v176q29 6 66 10.5t77 8.5t78.5 6t71.5 2q215 0 325.5 -82 t110.5 -237q0 -86 -38.5 -146.5t-110.5 -93.5q84 -31 128 -98.5t44 -165.5q0 -160 -112.5 -244t-329.5 -84q-41 0 -85.5 2t-85 5t-76.5 7t-63 11z" />
<glyph unicode="&#xb4;" horiz-adv-x="559" d="M94 1262l139 380h248l-217 -395z" />
<glyph unicode="&#xb5;" horiz-adv-x="1425" d="M180 -451v1557h238v-764q0 -94 40 -137t120 -43q98 0 198.5 33.5t220.5 80.5v830h240v-1106h-201l-14 139h-8q-92 -43 -161 -73.5t-127 -49t-116.5 -27.5t-132.5 -9q-16 0 -30.5 1t-28.5 3v-435h-238z" />
<glyph unicode="&#xb6;" horiz-adv-x="1349" d="M80 1034q0 137 37 231.5t104.5 152t164.5 83t218 25.5q63 0 132 -5t141 -16v-1505h-121v545q-41 -2 -78 -2h-72q-121 0 -218 25.5t-165.5 83t-105.5 151.5t-37 231zM993 0v1505h150v-1505h-150z" />
<glyph unicode="&#xb7;" horiz-adv-x="540" d="M125 758q0 74 35 107.5t110 33.5q74 0 110 -34t36 -107q-1 -142 -146 -142q-76 0 -110.5 34t-34.5 108z" />
<glyph unicode="&#xb8;" horiz-adv-x="669" d="M80 -274q35 -10 75 -17.5t83 -7.5q76 0 106.5 24.5t30.5 79.5q0 47 -29 103.5t-102 150.5h164q41 -55 67.5 -95t41.5 -70.5t21.5 -56t6.5 -54.5q0 -111 -68.5 -172.5t-191.5 -61.5q-43 0 -98.5 7.5t-106.5 17.5v152z" />
<glyph unicode="&#xb9;" horiz-adv-x="737" d="M41 1518v24l383 191h149v-1119h-204v899l-289 -108h-14z" />
<glyph unicode="&#xba;" horiz-adv-x="1040" d="M96 1118q0 209 111.5 310.5t312.5 101.5t312.5 -101.5t111.5 -310.5t-111.5 -310t-312.5 -101t-312.5 101t-111.5 310zM293 1118q0 -154 58 -208t169 -54t168 54.5t57 207.5q0 78 -14 128t-43 80t-71 42t-97 12t-97 -12t-71.5 -42t-44 -80t-14.5 -128z" />
<glyph unicode="&#xbb;" horiz-adv-x="1433" d="M92 61l426 488v8l-426 487h250l426 -487v-8l-426 -488h-250zM692 61l426 488v8l-426 487h250l426 -487v-8l-426 -488h-250z" />
<glyph unicode="&#xbc;" horiz-adv-x="2250" d="M59 1313v24l383 191h150v-1118h-205v899l-289 -109h-14zM506 0l766 1516h215l-764 -1516h-217zM1221 369l397 759l20 5l170 -21l17 -39l-381 -667h356l49 333h146v-333h190v-166h-190v-240h-205v240h-537z" />
<glyph unicode="&#xbd;" horiz-adv-x="2306" d="M59 1313v24l383 191h150v-1118h-205v899l-289 -109h-14zM506 0l766 1516h215l-764 -1516h-217zM1386 4v158q0 143 86.5 242.5t280.5 187.5q70 31 116 56.5t72.5 50t37 48t10.5 52.5q0 154 -232 153q-63 0 -138 -9t-177 -30l-23 174q113 23 201 33t168 10q406 0 405 -317 q0 -115 -74.5 -199t-242.5 -161q-127 -63 -176 -113.5t-49 -114.5v-49h547v-172h-812z" />
<glyph unicode="&#xbe;" horiz-adv-x="2422" d="M123 418v178h10q20 -4 53 -7t68 -6t69.5 -5.5t59.5 -2.5q156 0 222.5 43.5t66.5 133.5q0 78 -64.5 115.5t-214.5 37.5h-131v142h129q133 0 191.5 38.5t58.5 118.5q0 82 -58.5 121t-193.5 39q-43 0 -111.5 -6t-144.5 -17h-10v177q29 6 65.5 10t76.5 8t79 6t72 2 q215 0 325.5 -82t110.5 -237q0 -86 -39 -146.5t-111 -93.5q84 -31 128 -98.5t44 -165.5q0 -160 -112.5 -244t-329.5 -84q-41 0 -85 2t-85 5t-76.5 7.5t-62.5 10.5zM676 0l766 1516h215l-764 -1516h-217zM1395 369l397 759l20 5l170 -21l17 -39l-381 -667h356l49 333h146 v-333h190v-166h-190v-240h-205v240h-537z" />
<glyph unicode="&#xbf;" horiz-adv-x="966" d="M70 -20q0 100 35.5 173.5t93 124t131 82t149.5 50.5l6 272v35h168v-35l17 -381q-68 -16 -136.5 -37.5t-123 -56.5t-89 -85t-34.5 -120q0 -68 23.5 -113t63.5 -72.5t92 -38.5t107 -11q82 0 162 13t152 30l20 -183q-90 -23 -182 -36t-190 -13q-96 0 -181.5 22.5t-148 70.5 t-99 124t-36.5 185zM436 997q0 57 34 89t93 32t93 -31.5t34 -89.5q0 -59 -33.5 -91t-93.5 -32q-59 0 -93 32t-34 91z" />
<glyph unicode="&#xc0;" horiz-adv-x="1519" d="M10 0v16l565 1500h369l565 -1500v-16h-241l-158 420h-702l-156 -420h-242zM440 1972h250l146 -297l-181 -26zM475 618h569l-167 441l-107 291h-22l-105 -293z" />
<glyph unicode="&#xc1;" horiz-adv-x="1519" d="M10 0v16l565 1500h369l565 -1500v-16h-241l-158 420h-702l-156 -420h-242zM475 618h569l-167 441l-107 291h-22l-105 -293zM659 1665l148 307h248l-215 -323z" />
<glyph unicode="&#xc2;" horiz-adv-x="1519" d="M10 0v16l565 1500h369l565 -1500v-16h-241l-158 420h-702l-156 -420h-242zM379 1657v178l381 158l385 -158v-178l-383 155zM475 618h569l-167 441l-107 291h-22l-105 -293z" />
<glyph unicode="&#xc3;" horiz-adv-x="1519" d="M10 0v16l565 1500h369l565 -1500v-16h-241l-158 420h-702l-156 -420h-242zM309 1772q66 94 143.5 139t151.5 45q53 0 101.5 -13.5t95.5 -29t94 -27.5t98 -12q53 0 101.5 17.5t105.5 60.5l47 -64q-63 -92 -145 -138t-160 -46q-49 0 -97 12.5t-96.5 27.5t-96.5 27.5 t-95 12.5q-49 0 -97 -15.5t-102 -58.5zM475 618h569l-167 441l-107 291h-22l-105 -293z" />
<glyph unicode="&#xc4;" horiz-adv-x="1519" d="M10 0v16l565 1500h369l565 -1500v-16h-241l-158 420h-702l-156 -420h-242zM319 1815q0 74 35 107.5t109 33.5q145 0 145 -141q0 -142 -145 -142q-74 0 -109 34t-35 108zM475 618h569l-167 441l-107 291h-22l-105 -293zM911 1815q0 74 35 107.5t111 33.5q143 0 143 -141 q0 -142 -143 -142q-76 0 -111 34t-35 108z" />
<glyph unicode="&#xc5;" horiz-adv-x="1519" d="M10 0v16l565 1500h369l565 -1500v-16h-241l-158 420h-702l-156 -420h-242zM475 618h569l-167 441l-107 291h-22l-105 -293zM494 1853q0 51 20.5 93.5t57 73t86 48t106.5 17.5t106.5 -17.5t85 -48t56 -72.5t20.5 -94q0 -49 -20.5 -90t-56 -71.5t-85 -47t-106.5 -16.5 t-106.5 16.5t-86 47t-57 71.5t-20.5 90zM610 1853q0 -124 154 -124q152 0 151 124q0 129 -151 129q-154 0 -154 -129z" />
<glyph unicode="&#xc6;" horiz-adv-x="1976" d="M6 0v18l658 1498h1189v-193h-706l24 -461h633v-194h-622l26 -475h672v-193h-915l-19 418h-520l-184 -418h-236zM514 618h424l-29 719h-78z" />
<glyph unicode="&#xc7;" horiz-adv-x="1284" d="M102 754q0 393 182.5 589.5t544.5 196.5q74 0 171.5 -11t203.5 -28v-203q-127 20 -206.5 28.5t-143.5 8.5q-262 0 -382 -138t-120 -441q0 -299 116 -436.5t372 -137.5q37 0 87 3t101 9.5t98.5 14.5t77.5 16v-200q-72 -18 -164 -29.5t-168 -15.5q47 -68 63.5 -109 t16.5 -88q0 -111 -68.5 -172.5t-191.5 -61.5q-43 0 -98 7.5t-107 17.5v152q35 -10 75 -17.5t83 -7.5q76 0 106.5 24.5t30.5 79.5q0 37 -17 79t-60 104q-301 33 -452 224t-151 542z" />
<glyph unicode="&#xc8;" horiz-adv-x="1366" d="M182 0v1516h1063v-193h-819v-459h764v-194h-764v-477h838v-193h-1082zM444 1972h250l146 -297l-181 -26z" />
<glyph unicode="&#xc9;" horiz-adv-x="1366" d="M182 0v1516h1063v-193h-819v-459h764v-194h-764v-477h838v-193h-1082zM608 1665l148 307h248l-216 -323z" />
<glyph unicode="&#xca;" horiz-adv-x="1366" d="M182 0v1516h1063v-193h-819v-459h764v-194h-764v-477h838v-193h-1082zM350 1657v178l381 158l385 -158v-178l-383 155z" />
<glyph unicode="&#xcb;" horiz-adv-x="1366" d="M182 0v1516h1063v-193h-819v-459h764v-194h-764v-477h838v-193h-1082zM287 1815q0 74 34.5 107.5t108.5 33.5q145 0 145 -141q0 -142 -145 -142q-74 0 -108.5 34t-34.5 108zM879 1815q0 74 34.5 107.5t110.5 33.5q143 0 143 -141q0 -142 -143 -142q-76 0 -110.5 34 t-34.5 108z" />
<glyph unicode="&#xcc;" horiz-adv-x="608" d="M23 1972h249l146 -297l-180 -26zM182 0v1516h244v-1516h-244z" />
<glyph unicode="&#xcd;" horiz-adv-x="608" d="M182 0v1516h244v-1516h-244zM205 1665l147 307h248l-215 -323z" />
<glyph unicode="&#xce;" horiz-adv-x="608" d="M-76 1657v178l381 158l385 -158v-178l-383 155zM182 0v1516h244v-1516h-244z" />
<glyph unicode="&#xcf;" horiz-adv-x="608" d="M-131 1815q0 74 35 107.5t108 33.5q145 0 146 -141q-1 -142 -146 -142q-74 0 -108.5 34t-34.5 108zM182 0v1516h244v-1516h-244zM461 1815q0 74 34.5 107.5t110.5 33.5q143 0 144 -141q-1 -142 -144 -142q-76 0 -110.5 34t-34.5 108z" />
<glyph unicode="&#xd0;" horiz-adv-x="1646" d="M12 664v192h199v657q63 4 131 7.5t133.5 6.5t123.5 5t101 2q436 0 640 -187.5t204 -588.5q0 -203 -51 -350.5t-159.5 -241.5t-277.5 -139t-405 -45q-70 0 -137.5 2t-125.5 6t-104 10t-73 12v652h-199zM455 201q76 -12 139 -17.5t141 -5.5q147 0 254 33t174.5 103.5 t99 180t31.5 263.5q0 303 -133 439t-432 136q-53 0 -128 -4t-146 -10v-463h362v-192h-362v-463z" />
<glyph unicode="&#xd1;" horiz-adv-x="1705" d="M182 0v1516h199l782 -984l131 -182h15v1166h217v-1516h-201l-778 979l-133 184h-15v-1163h-217zM403 1772q66 94 144 139t151 45q53 0 101.5 -13.5t95.5 -29t94 -27.5t98 -12q53 0 101.5 17.5t105.5 60.5l47 -64q-63 -92 -145 -138t-160 -46q-49 0 -97 12.5t-96 27.5 t-96.5 27.5t-95.5 12.5q-49 0 -97 -15.5t-101 -58.5z" />
<glyph unicode="&#xd2;" horiz-adv-x="1648" d="M102 756q0 381 187.5 580.5t535.5 199.5q344 0 532.5 -199.5t188.5 -580.5t-188.5 -578.5t-532.5 -197.5q-348 0 -535.5 197.5t-187.5 578.5zM352 756q0 -297 115.5 -436.5t357.5 -139.5t357.5 139.5t115.5 436.5q0 299 -116.5 439t-356.5 140q-242 0 -357.5 -139 t-115.5 -440zM508 1972h250l145 -297l-180 -26z" />
<glyph unicode="&#xd3;" horiz-adv-x="1648" d="M102 756q0 381 187.5 580.5t535.5 199.5q344 0 532.5 -199.5t188.5 -580.5t-188.5 -578.5t-532.5 -197.5q-348 0 -535.5 197.5t-187.5 578.5zM352 756q0 -297 115.5 -436.5t357.5 -139.5t357.5 139.5t115.5 436.5q0 299 -116.5 439t-356.5 140q-242 0 -357.5 -139 t-115.5 -440zM723 1665l147 307h248l-215 -323z" />
<glyph unicode="&#xd4;" horiz-adv-x="1648" d="M102 756q0 381 187.5 580.5t535.5 199.5q344 0 532.5 -199.5t188.5 -580.5t-188.5 -578.5t-532.5 -197.5q-348 0 -535.5 197.5t-187.5 578.5zM352 756q0 -297 115.5 -436.5t357.5 -139.5t357.5 139.5t115.5 436.5q0 299 -116.5 439t-356.5 140q-242 0 -357.5 -139 t-115.5 -440zM438 1657v178l381 158l385 -158v-178l-383 155z" />
<glyph unicode="&#xd5;" horiz-adv-x="1648" d="M102 756q0 381 187.5 580.5t535.5 199.5q344 0 532.5 -199.5t188.5 -580.5t-188.5 -578.5t-532.5 -197.5q-348 0 -535.5 197.5t-187.5 578.5zM352 756q0 -297 115.5 -436.5t357.5 -139.5t357.5 139.5t115.5 436.5q0 299 -116.5 439t-356.5 140q-242 0 -357.5 -139 t-115.5 -440zM373 1772q66 94 143.5 139t151.5 45q53 0 101 -13.5t95 -29t94.5 -27.5t98.5 -12q53 0 101 17.5t106 60.5l47 -64q-63 -92 -145.5 -138t-159.5 -46q-49 0 -97.5 12.5t-96.5 27.5t-96 27.5t-95 12.5q-49 0 -97.5 -15.5t-101.5 -58.5z" />
<glyph unicode="&#xd6;" horiz-adv-x="1648" d="M102 756q0 381 187.5 580.5t535.5 199.5q344 0 532.5 -199.5t188.5 -580.5t-188.5 -578.5t-532.5 -197.5q-348 0 -535.5 197.5t-187.5 578.5zM352 756q0 -297 115.5 -436.5t357.5 -139.5t357.5 139.5t115.5 436.5q0 299 -116.5 439t-356.5 140q-242 0 -357.5 -139 t-115.5 -440zM375 1815q0 74 34.5 107.5t108.5 33.5q145 0 146 -141q-1 -142 -146 -142q-74 0 -108.5 34t-34.5 108zM967 1815q0 74 34.5 107.5t110.5 33.5q143 0 143 -141q0 -142 -143 -142q-76 0 -110.5 34t-34.5 108z" />
<glyph unicode="&#xd7;" horiz-adv-x="1003" d="M117 485l272 275l-272 272l110 113l273 -275l274 275l113 -113l-275 -274l275 -273l-111 -110l-274 272l-275 -272z" />
<glyph unicode="&#xd8;" horiz-adv-x="1648" d="M76 0l184 215q-78 98 -118 232.5t-40 308.5q0 381 187.5 580.5t535.5 199.5q279 0 455 -133l96 113h193l-183 -213q160 -201 160 -547q0 -381 -187.5 -578.5t-533.5 -197.5q-281 0 -460 133l-97 -113h-192zM352 756q0 -225 66 -357l719 838q-115 98 -312 98 q-242 0 -357.5 -139t-115.5 -440zM508 279q116 -99 317 -99q242 0 358.5 139.5t116.5 436.5q0 225 -71 364z" />
<glyph unicode="&#xd9;" horiz-adv-x="1662" d="M166 625v893h244v-895q0 -236 104 -339.5t317 -103.5q211 0 316.5 103.5t105.5 339.5v895h246v-893q0 -168 -37 -290t-117.5 -201t-208 -116.5t-305.5 -37.5t-305 37.5t-206.5 116.5t-116.5 201t-37 290zM522 1972h250l146 -297l-181 -26z" />
<glyph unicode="&#xda;" horiz-adv-x="1662" d="M166 625v893h244v-895q0 -236 104 -339.5t317 -103.5q211 0 316.5 103.5t105.5 339.5v895h246v-893q0 -168 -37 -290t-117.5 -201t-208 -116.5t-305.5 -37.5t-305 37.5t-206.5 116.5t-116.5 201t-37 290zM707 1665l147 307h248l-215 -323z" />
<glyph unicode="&#xdb;" horiz-adv-x="1662" d="M166 625v893h244v-895q0 -236 104 -339.5t317 -103.5q211 0 316.5 103.5t105.5 339.5v895h246v-893q0 -168 -37 -290t-117.5 -201t-208 -116.5t-305.5 -37.5t-305 37.5t-206.5 116.5t-116.5 201t-37 290zM440 1657v178l381 158l385 -158v-178l-383 155z" />
<glyph unicode="&#xdc;" horiz-adv-x="1662" d="M166 625v893h244v-895q0 -236 104 -339.5t317 -103.5q211 0 316.5 103.5t105.5 339.5v895h246v-893q0 -168 -37 -290t-117.5 -201t-208 -116.5t-305.5 -37.5t-305 37.5t-206.5 116.5t-116.5 201t-37 290zM385 1815q0 74 35 107.5t108 33.5q145 0 146 -141 q-1 -142 -146 -142q-74 0 -108.5 34t-34.5 108zM977 1815q0 74 35 107.5t110 33.5q143 0 144 -141q-1 -142 -144 -142q-76 0 -110.5 34t-34.5 108z" />
<glyph unicode="&#xdd;" horiz-adv-x="1406" d="M2 1516h262l361 -648l67 -149h21l67 149l361 648h262l-576 -1012v-504h-243v498zM606 1665l148 307h247l-215 -323z" />
<glyph unicode="&#xde;" horiz-adv-x="1443" d="M182 0v1518h244v-246q98 6 192 6q197 0 338.5 -30.5t232.5 -94t135 -162t44 -233.5t-42 -233.5t-132 -162t-229.5 -93t-333.5 -29.5q-94 0 -205 6v-246h-244zM426 461q8 -4 34.5 -6t59.5 -4t66.5 -3.5t56.5 -1.5q139 0 231.5 14.5t147.5 50.5t78.5 96.5t23.5 150.5 q0 88 -24.5 148.5t-83 96t-152.5 51t-235 15.5h-49t-57.5 -2t-55.5 -4t-41 -4v-598z" />
<glyph unicode="&#xdf;" horiz-adv-x="1511" d="M156 0v1190q0 248 141 360.5t424 112.5q287 0 430 -114.5t143 -358.5v-234h-252q-242 0 -241 -149q0 -43 19.5 -69.5t55 -45t87 -30t114.5 -21.5q82 -12 150.5 -34.5t118 -59.5t77 -93.5t27.5 -138.5q0 -164 -120 -251t-345 -87q-86 0 -190.5 11.5t-239.5 36.5v172 q125 -27 225.5 -39.5t192.5 -12.5q246 0 246 156q0 43 -17.5 71.5t-49.5 48t-76 31t-97 19.5q-68 10 -140.5 24.5t-133 48.5t-98.5 95t-38 164q0 156 121 243t336 87h25v57q0 147 -80 213.5t-246 66.5q-168 0 -249 -65.5t-81 -214.5v-1190h-239z" />
<glyph unicode="&#xe0;" horiz-adv-x="1183" d="M82 287q0 166 102.5 250t329.5 100l285 22v50q0 68 -12.5 111.5t-43 71.5t-85 39t-140.5 11q-152 0 -352 -39l-19 174q121 23 220.5 32t197.5 9q242 0 357.5 -91t115.5 -282v-745h-194l-25 139h-14q-106 -78 -209 -113.5t-201 -35.5q-156 0 -234.5 75.5t-78.5 221.5z M293 1655h258l139 -377l-178 -21zM326 311q0 -78 40 -112.5t126 -34.5q72 0 150.5 27.5t156.5 80.5v252l-209 -18q-74 -6 -125 -19.5t-82 -37t-44 -57.5t-13 -81z" />
<glyph unicode="&#xe1;" horiz-adv-x="1183" d="M82 287q0 166 102.5 250t329.5 100l285 22v50q0 68 -12.5 111.5t-43 71.5t-85 39t-140.5 11q-152 0 -352 -39l-19 174q121 23 220.5 32t197.5 9q242 0 357.5 -91t115.5 -282v-745h-194l-25 139h-14q-106 -78 -209 -113.5t-201 -35.5q-156 0 -234.5 75.5t-78.5 221.5z M326 311q0 -78 40 -112.5t126 -34.5q72 0 150.5 27.5t156.5 80.5v252l-209 -18q-74 -6 -125 -19.5t-82 -37t-44 -57.5t-13 -81zM504 1262l139 380h248l-217 -395z" />
<glyph unicode="&#xe2;" horiz-adv-x="1183" d="M82 287q0 166 102.5 250t329.5 100l285 22v50q0 68 -12.5 111.5t-43 71.5t-85 39t-140.5 11q-152 0 -352 -39l-19 174q121 23 220.5 32t197.5 9q242 0 357.5 -91t115.5 -282v-745h-194l-25 139h-14q-106 -78 -209 -113.5t-201 -35.5q-156 0 -234.5 75.5t-78.5 221.5z M215 1278v176l379 158l385 -158v-176l-383 156zM326 311q0 -78 40 -112.5t126 -34.5q72 0 150.5 27.5t156.5 80.5v252l-209 -18q-74 -6 -125 -19.5t-82 -37t-44 -57.5t-13 -81z" />
<glyph unicode="&#xe3;" horiz-adv-x="1183" d="M82 287q0 166 102.5 250t329.5 100l285 22v50q0 68 -12.5 111.5t-43 71.5t-85 39t-140.5 11q-152 0 -352 -39l-19 174q121 23 220.5 32t197.5 9q242 0 357.5 -91t115.5 -282v-745h-194l-25 139h-14q-106 -78 -209 -113.5t-201 -35.5q-156 0 -234.5 75.5t-78.5 221.5z M131 1386q66 96 142.5 141.5t150.5 45.5q53 0 102 -13.5t95.5 -28.5t93.5 -27.5t98 -12.5q53 0 102.5 17.5t104.5 58.5l49 -62q-66 -92 -146.5 -139t-158.5 -47q-49 0 -97.5 13.5t-96.5 28.5t-96 28.5t-97 13.5t-96.5 -17.5t-100.5 -58.5zM326 311q0 -78 40 -112.5 t126 -34.5q72 0 150.5 27.5t156.5 80.5v252l-209 -18q-74 -6 -125 -19.5t-82 -37t-44 -57.5t-13 -81z" />
<glyph unicode="&#xe4;" horiz-adv-x="1183" d="M82 287q0 166 102.5 250t329.5 100l285 22v50q0 68 -12.5 111.5t-43 71.5t-85 39t-140.5 11q-152 0 -352 -39l-19 174q121 23 220.5 32t197.5 9q242 0 357.5 -91t115.5 -282v-745h-194l-25 139h-14q-106 -78 -209 -113.5t-201 -35.5q-156 0 -234.5 75.5t-78.5 221.5z M199 1454q0 125 129 125q131 0 131 -125q0 -131 -131 -131q-129 0 -129 131zM326 311q0 -78 40 -112.5t126 -34.5q72 0 150.5 27.5t156.5 80.5v252l-209 -18q-74 -6 -125 -19.5t-82 -37t-44 -57.5t-13 -81zM739 1454q0 125 129 125q131 0 131 -125q0 -131 -131 -131 q-129 0 -129 131z" />
<glyph unicode="&#xe5;" horiz-adv-x="1183" d="M82 287q0 166 102.5 250t329.5 100l285 22v50q0 68 -12.5 111.5t-43 71.5t-85 39t-140.5 11q-152 0 -352 -39l-19 174q121 23 220.5 32t197.5 9q242 0 357.5 -91t115.5 -282v-745h-194l-25 139h-14q-106 -78 -209 -113.5t-201 -35.5q-156 0 -234.5 75.5t-78.5 221.5z M322 1444q0 51 20 93t57 72.5t87.5 48t107.5 17.5t106.5 -17.5t85 -48t56 -72.5t20.5 -93q0 -49 -20.5 -90t-56 -72t-85 -47t-106.5 -16t-107.5 16t-87.5 47t-57 72t-20 90zM326 311q0 -78 40 -112.5t126 -34.5q72 0 150.5 27.5t156.5 80.5v252l-209 -18q-74 -6 -125 -19.5 t-82 -37t-44 -57.5t-13 -81zM440 1444q0 -125 154 -125q150 0 149 125q0 129 -149 129q-154 0 -154 -129z" />
<glyph unicode="&#xe6;" horiz-adv-x="1921" d="M84 289q0 162 103.5 245.5t326.5 100.5l287 20v72q0 61 -14.5 102t-47 66t-89 35t-138.5 10q-76 0 -159 -8t-185 -29l-21 174q121 23 219.5 32t202.5 9q154 0 247 -45t134 -133h15q61 86 159.5 132t235.5 46q229 0 348 -124t119 -363q0 -102 -15 -152h-768 q8 -166 90.5 -240.5t256.5 -74.5q94 0 197.5 13t189.5 40l10 -176q-96 -31 -208 -48.5t-214 -17.5q-315 0 -444 195l-13 2q-162 -100 -284.5 -141t-231.5 -41q-154 0 -231.5 75.5t-77.5 223.5zM328 311q0 -78 40 -114.5t126 -36.5q70 0 149.5 27.5t157.5 80.5v260l-211 -18 q-147 -14 -204.5 -60.5t-57.5 -138.5zM1042 610h570q-4 180 -64.5 257t-195.5 77q-150 0 -224.5 -81t-85.5 -253z" />
<glyph unicode="&#xe7;" horiz-adv-x="1062" d="M96 551q0 573 559 573q80 0 165 -8t151 -24v-195q-72 12 -145.5 19.5t-145.5 7.5q-180 0 -263 -89.5t-83 -281.5q0 -197 80 -284t262 -87q88 0 154.5 5.5t140.5 19.5v-193q-47 -12 -116 -20t-140 -10q47 -70 64.5 -112t17.5 -89q0 -111 -68.5 -172.5t-191.5 -61.5 q-43 0 -98.5 7.5t-106.5 17.5v152q35 -10 74.5 -17.5t82.5 -7.5q76 0 107 24.5t31 79.5q0 37 -17.5 80t-60.5 103q-453 49 -453 563z" />
<glyph unicode="&#xe8;" horiz-adv-x="1210" d="M96 543q0 283 140.5 432t408.5 149q471 0 471 -493q0 -47 -3 -85t-13 -67h-766q6 -84 29.5 -143.5t65.5 -96t105.5 -53t151.5 -16.5q90 0 192.5 14.5t188.5 38.5l10 -176q-94 -31 -206 -48t-216 -17q-559 0 -559 561zM313 1655h258l140 -377l-179 -21zM334 625h565 q-6 176 -66.5 250.5t-195.5 74.5q-143 0 -218 -78.5t-85 -246.5z" />
<glyph unicode="&#xe9;" horiz-adv-x="1210" d="M96 543q0 283 140.5 432t408.5 149q471 0 471 -493q0 -47 -3 -85t-13 -67h-766q6 -84 29.5 -143.5t65.5 -96t105.5 -53t151.5 -16.5q90 0 192.5 14.5t188.5 38.5l10 -176q-94 -31 -206 -48t-216 -17q-559 0 -559 561zM334 625h565q-6 176 -66.5 250.5t-195.5 74.5 q-143 0 -218 -78.5t-85 -246.5zM565 1262l140 380h247l-217 -395z" />
<glyph unicode="&#xea;" horiz-adv-x="1210" d="M96 543q0 283 140.5 432t408.5 149q471 0 471 -493q0 -47 -3 -85t-13 -67h-766q6 -84 29.5 -143.5t65.5 -96t105.5 -53t151.5 -16.5q90 0 192.5 14.5t188.5 38.5l10 -176q-94 -31 -206 -48t-216 -17q-559 0 -559 561zM254 1278v176l379 158l385 -158v-176l-383 156z M334 625h565q-6 176 -66.5 250.5t-195.5 74.5q-143 0 -218 -78.5t-85 -246.5z" />
<glyph unicode="&#xeb;" horiz-adv-x="1210" d="M96 543q0 283 140.5 432t408.5 149q471 0 471 -493q0 -47 -3 -85t-13 -67h-766q6 -84 29.5 -143.5t65.5 -96t105.5 -53t151.5 -16.5q90 0 192.5 14.5t188.5 38.5l10 -176q-94 -31 -206 -48t-216 -17q-559 0 -559 561zM225 1454q0 125 129 125q131 0 131 -125 q0 -131 -131 -131q-129 0 -129 131zM334 625h565q-6 176 -66.5 250.5t-195.5 74.5q-143 0 -218 -78.5t-85 -246.5zM766 1454q0 125 129 125q131 0 131 -125q0 -131 -131 -131q-129 0 -129 131z" />
<glyph unicode="&#xec;" horiz-adv-x="552" d="M-45 1655h258l139 -377l-178 -21zM156 0v1106h241v-1106h-241z" />
<glyph unicode="&#xed;" horiz-adv-x="552" d="M156 0v1106h241v-1106h-241zM193 1262l139 380h248l-218 -395z" />
<glyph unicode="&#xee;" horiz-adv-x="552" d="M-84 1278v176l360 158l369 -158v-176l-364 156zM156 0v1106h241v-1106h-241z" />
<glyph unicode="&#xef;" horiz-adv-x="552" d="M-100 1454q0 125 129 125q131 0 131 -125q0 -131 -131 -131q-129 0 -129 131zM156 0v1106h241v-1106h-241zM399 1454q0 125 129 125q131 0 131 -125q0 -131 -131 -131q-129 0 -129 131z" />
<glyph unicode="&#xf0;" horiz-adv-x="1351" d="M92 551q0 274 145.5 424.5t401.5 150.5q123 0 206 -43t140 -139q-39 190 -131 354l-405 -38v155l311 31q-41 53 -85 104.5t-97 104.5h249q31 -35 68 -82t78 -107l332 33v-158l-244 -24q70 -133 120 -303t50 -381q0 -324 -146.5 -488.5t-425.5 -164.5q-272 0 -419.5 147 t-147.5 424zM336 553q0 -201 77 -293t251 -92q170 0 247.5 99.5t77.5 316.5q0 158 -83 255t-247 97q-170 0 -246.5 -92t-76.5 -291z" />
<glyph unicode="&#xf1;" d="M156 0v1106h198l15 -131h14q176 80 295 115.5t217 35.5q150 0 233.5 -77.5t83.5 -231.5v-817h-241v735q0 109 -42 155t-132 46q-78 0 -182.5 -31t-219.5 -80v-825h-239zM225 1386q66 96 142.5 141.5t150.5 45.5q53 0 102.5 -13.5t95.5 -28.5t93 -27.5t98 -12.5 q53 0 102.5 17.5t104.5 58.5l49 -62q-66 -92 -146.5 -139t-158.5 -47q-49 0 -97 13.5t-96.5 28.5t-96.5 28.5t-97 13.5t-96 -17.5t-101 -58.5z" />
<glyph unicode="&#xf2;" horiz-adv-x="1325" d="M92 553q0 279 147.5 426t424.5 147q276 0 421.5 -147.5t145.5 -425.5q0 -279 -145.5 -426t-421.5 -147t-424 147t-148 426zM332 1655h258l139 -377l-178 -21zM336 553q0 -203 78 -294t250 -91t248.5 90t76.5 295q0 203 -76.5 293t-248.5 90t-250 -90t-78 -293z" />
<glyph unicode="&#xf3;" horiz-adv-x="1325" d="M92 553q0 279 147.5 426t424.5 147q276 0 421.5 -147.5t145.5 -425.5q0 -279 -145.5 -426t-421.5 -147t-424 147t-148 426zM336 553q0 -203 78 -294t250 -91t248.5 90t76.5 295q0 203 -76.5 293t-248.5 90t-250 -90t-78 -293zM567 1262l140 380h247l-217 -395z" />
<glyph unicode="&#xf4;" horiz-adv-x="1325" d="M92 553q0 279 147.5 426t424.5 147q276 0 421.5 -147.5t145.5 -425.5q0 -279 -145.5 -426t-421.5 -147t-424 147t-148 426zM274 1278v176l379 158l385 -158v-176l-383 156zM336 553q0 -203 78 -294t250 -91t248.5 90t76.5 295q0 203 -76.5 293t-248.5 90t-250 -90 t-78 -293z" />
<glyph unicode="&#xf5;" horiz-adv-x="1325" d="M92 553q0 279 147.5 426t424.5 147q276 0 421.5 -147.5t145.5 -425.5q0 -279 -145.5 -426t-421.5 -147t-424 147t-148 426zM197 1386q66 96 142.5 141.5t149.5 45.5q53 0 102.5 -13.5t95.5 -28.5t93 -27.5t99 -12.5q53 0 102 17.5t104 58.5l50 -62q-66 -92 -147 -139 t-159 -47q-49 0 -97 13.5t-96 28.5t-96 28.5t-98 13.5q-49 0 -96 -17.5t-100 -58.5zM336 553q0 -203 78 -294t250 -91t248.5 90t76.5 295q0 203 -76.5 293t-248.5 90t-250 -90t-78 -293z" />
<glyph unicode="&#xf6;" horiz-adv-x="1325" d="M92 553q0 279 147.5 426t424.5 147q276 0 421.5 -147.5t145.5 -425.5q0 -279 -145.5 -426t-421.5 -147t-424 147t-148 426zM258 1454q0 125 129 125q131 0 131 -125q0 -131 -131 -131q-129 0 -129 131zM336 553q0 -203 78 -294t250 -91t248.5 90t76.5 295 q0 203 -76.5 293t-248.5 90t-250 -90t-78 -293zM799 1454q0 125 129 125q131 0 131 -125q0 -131 -131 -131q-129 0 -129 131z" />
<glyph unicode="&#xf7;" horiz-adv-x="1087" d="M125 680v156h840v-156h-840zM440 414q0 53 31 80.5t78 27.5q49 0 79.5 -27.5t30.5 -80.5q0 -55 -30.5 -83t-79.5 -28q-47 0 -78 27.5t-31 83.5zM440 1092q0 55 31 83.5t78 28.5q49 0 79.5 -29.5t30.5 -82.5t-30.5 -81t-79.5 -28q-47 0 -78 27.5t-31 81.5z" />
<glyph unicode="&#xf8;" horiz-adv-x="1337" d="M41 0l168 174q-53 72 -80 167t-27 212q0 268 141.5 420.5t426.5 152.5q113 0 203 -25.5t159 -72.5l74 78h192l-168 -174q109 -143 109 -379q0 -270 -142.5 -421.5t-426.5 -151.5q-225 0 -363 96l-74 -76h-192zM344 553q0 -129 27 -211l516 537q-39 29 -92.5 43t-124.5 14 q-94 0 -156.5 -23.5t-100.5 -71.5t-53.5 -120t-15.5 -168zM451 225q76 -57 219 -57q92 0 155.5 23.5t101.5 71.5t54 121t16 169q0 63 -6 115.5t-22 95.5z" />
<glyph unicode="&#xf9;" d="M147 289v817h240v-741q0 -104 38 -149.5t126 -45.5q49 0 101.5 11.5t106.5 28.5t105 38.5t99 40.5v817h241v-1106h-200l-15 139h-8q-90 -43 -156.5 -72.5t-126 -49t-119 -28.5t-133.5 -9q-147 0 -223 79.5t-76 229.5zM346 1655h258l139 -377l-178 -21z" />
<glyph unicode="&#xfa;" d="M147 289v817h240v-741q0 -104 38 -149.5t126 -45.5q49 0 101.5 11.5t106.5 28.5t105 38.5t99 40.5v817h241v-1106h-200l-15 139h-8q-90 -43 -156.5 -72.5t-126 -49t-119 -28.5t-133.5 -9q-147 0 -223 79.5t-76 229.5zM575 1262l140 380h248l-218 -395z" />
<glyph unicode="&#xfb;" d="M147 289v817h240v-741q0 -104 38 -149.5t126 -45.5q49 0 101.5 11.5t106.5 28.5t105 38.5t99 40.5v817h241v-1106h-200l-15 139h-8q-90 -43 -156.5 -72.5t-126 -49t-119 -28.5t-133.5 -9q-147 0 -223 79.5t-76 229.5zM293 1278v176l379 158l385 -158v-176l-383 156z" />
<glyph unicode="&#xfc;" d="M147 289v817h240v-741q0 -104 38 -149.5t126 -45.5q49 0 101.5 11.5t106.5 28.5t105 38.5t99 40.5v817h241v-1106h-200l-15 139h-8q-90 -43 -156.5 -72.5t-126 -49t-119 -28.5t-133.5 -9q-147 0 -223 79.5t-76 229.5zM272 1454q0 125 129 125q131 0 131 -125 q0 -131 -131 -131q-129 0 -129 131zM813 1454q0 125 129 125q131 0 131 -125q0 -131 -131 -131q-129 0 -129 131z" />
<glyph unicode="&#xfd;" horiz-adv-x="1263" d="M31 1077v29h258l272 -664l64 -186h14l61 186l287 664h250v-29l-684 -1528l-219 33v25l178 407zM551 1262l139 380h248l-217 -395z" />
<glyph unicode="&#xfe;" horiz-adv-x="1349" d="M156 -451v2106h237v-670q55 59 148.5 100t234.5 41q242 0 359.5 -136t117.5 -429q0 -582 -616 -581q-53 0 -122 7t-122 11v-449h-237zM393 178q61 -16 129 -23.5t115 -7.5q98 0 170 15.5t117 59.5t66.5 121t21.5 200t-18.5 201.5t-55.5 124.5t-95.5 63.5t-137.5 17.5 q-160 0 -236 -90t-76 -270v-412z" />
<glyph unicode="&#xff;" horiz-adv-x="1263" d="M31 1077v29h258l272 -664l64 -186h14l61 186l287 664h250v-29l-684 -1528l-219 33v25l178 407zM231 1454q0 125 129 125q131 0 132 -125q-1 -131 -132 -131q-129 0 -129 131zM772 1454q0 125 129 125q131 0 131 -125q0 -131 -131 -131q-129 0 -129 131z" />
<glyph unicode="&#x152;" horiz-adv-x="2220" d="M100 756q0 190 49.5 335.5t142.5 244t228 149.5t309 51q70 0 126.5 -4t111.5 -16h1028v-193h-784v-459h729v-194h-729v-477h803v-193h-1047q-55 -10 -113.5 -15t-124.5 -5q-348 0 -538.5 198.5t-190.5 577.5zM350 756q0 -297 117.5 -436.5t361.5 -139.5q72 0 130.5 3 t107.5 18v1114q-51 12 -108.5 16t-129.5 4q-244 0 -361.5 -139t-117.5 -440z" />
<glyph unicode="&#x153;" horiz-adv-x="2107" d="M92 553q0 279 147.5 426t424.5 147q158 0 269 -58t169 -167l12 2q55 106 165 163.5t267 57.5q229 0 347 -123.5t118 -363.5q0 -47 -2 -84t-12 -68h-768q10 -168 92 -241.5t254 -73.5q92 0 195.5 13.5t191.5 39.5l10 -176q-94 -31 -206 -48t-214 -17q-166 0 -276.5 55 t-165.5 160h-10q-59 -104 -170 -160.5t-266 -56.5q-276 0 -424 147t-148 426zM336 553q0 -203 78 -294t250 -91t248.5 90t76.5 295q0 203 -76.5 293t-248.5 90t-250 -90t-78 -293zM1227 616h569q-4 182 -64.5 258t-197.5 76q-147 0 -222 -81t-85 -253z" />
<glyph unicode="&#x178;" horiz-adv-x="1406" d="M2 1516h262l361 -648l67 -149h21l67 149l361 648h262l-576 -1012v-504h-243v498zM262 1815q0 74 35 107.5t109 33.5q145 0 145 -141q0 -142 -145 -142q-74 0 -109 34t-35 108zM854 1815q0 74 35 107.5t110 33.5q143 0 144 -141q-1 -142 -144 -142q-76 0 -110.5 34 t-34.5 108z" />
<glyph unicode="&#x2c6;" horiz-adv-x="1019" d="M123 1278v176l379 158l385 -158v-176l-383 156z" />
<glyph unicode="&#x2dc;" horiz-adv-x="1107" d="M76 1386q66 96 142.5 141.5t150.5 45.5q53 0 102 -13.5t95 -28.5t93.5 -27.5t98.5 -12.5q53 0 102 17.5t105 58.5l49 -62q-66 -92 -147 -139t-158 -47q-49 0 -97.5 13.5t-96.5 28.5t-96 28.5t-97 13.5t-96.5 -17.5t-100.5 -58.5z" />
<glyph unicode="&#x2000;" horiz-adv-x="1042" />
<glyph unicode="&#x2001;" horiz-adv-x="2085" />
<glyph unicode="&#x2002;" horiz-adv-x="1042" />
<glyph unicode="&#x2003;" horiz-adv-x="2085" />
<glyph unicode="&#x2004;" horiz-adv-x="695" />
<glyph unicode="&#x2005;" horiz-adv-x="521" />
<glyph unicode="&#x2006;" horiz-adv-x="347" />
<glyph unicode="&#x2007;" horiz-adv-x="347" />
<glyph unicode="&#x2008;" horiz-adv-x="260" />
<glyph unicode="&#x2009;" horiz-adv-x="417" />
<glyph unicode="&#x200a;" horiz-adv-x="115" />
<glyph unicode="&#x2010;" horiz-adv-x="1062" d="M139 479v189h785v-189h-785z" />
<glyph unicode="&#x2011;" horiz-adv-x="1062" d="M139 479v189h785v-189h-785z" />
<glyph unicode="&#x2012;" horiz-adv-x="1062" d="M139 479v189h785v-189h-785z" />
<glyph unicode="&#x2013;" horiz-adv-x="1370" d="M139 479v189h1092v-189h-1092z" />
<glyph unicode="&#x2014;" horiz-adv-x="1720" d="M139 479v189h1442v-189h-1442z" />
<glyph unicode="&#x2018;" horiz-adv-x="481" d="M113 1206q0 53 9 112.5t26.5 119t43 116t58.5 105.5l137 -8q-35 -78 -55.5 -181.5t-20.5 -201.5q0 -57 8.5 -107.5t30.5 -105.5l-217 -13q-10 35 -15 76t-5 88z" />
<glyph unicode="&#x2019;" horiz-adv-x="477" d="M100 1053q37 76 56.5 179t19.5 202q0 55 -8 105t-31 108l217 12q23 -72 23 -166q0 -106 -37 -229t-102 -222z" />
<glyph unicode="&#x201a;" horiz-adv-x="493" d="M80 -295q37 76 56.5 179.5t19.5 201.5q0 55 -8.5 105.5t-30.5 107.5l217 12q23 -72 22 -166q0 -106 -36.5 -229t-102.5 -221z" />
<glyph unicode="&#x201c;" horiz-adv-x="950" d="M113 1206q0 53 9 112.5t26.5 119t43 116t58.5 105.5l137 -8q-35 -78 -55.5 -181.5t-20.5 -201.5q0 -57 8.5 -107.5t30.5 -105.5l-217 -13q-10 35 -15 76t-5 88zM582 1206q0 53 9 112.5t26.5 119t43 116t58.5 105.5l137 -8q-35 -78 -55.5 -181.5t-20.5 -201.5 q0 -57 8.5 -107.5t30.5 -105.5l-217 -13q-10 35 -15 76t-5 88z" />
<glyph unicode="&#x201d;" horiz-adv-x="948" d="M100 1053q37 76 56.5 179t19.5 202q0 55 -8 105t-31 108l217 12q23 -72 23 -166q0 -106 -37 -229t-102 -222zM569 1053q37 76 56.5 179t19.5 202q0 55 -8 105t-31 108l217 12q23 -72 23 -166q0 -106 -37 -229t-102 -222z" />
<glyph unicode="&#x201e;" horiz-adv-x="962" d="M80 -295q37 76 56.5 179.5t19.5 201.5q0 55 -8.5 105.5t-30.5 107.5l217 12q23 -72 22 -166q0 -106 -36.5 -229t-102.5 -221zM549 -295q37 76 56.5 179.5t19.5 201.5q0 55 -8.5 105.5t-30.5 107.5l217 12q23 -72 22 -166q0 -106 -36.5 -229t-102.5 -221z" />
<glyph unicode="&#x2022;" horiz-adv-x="735" d="M170 758q0 102 55.5 148t143.5 46q86 0 141 -46t55 -148t-55 -148.5t-141 -46.5q-88 0 -143.5 46t-55.5 149z" />
<glyph unicode="&#x2026;" horiz-adv-x="1538" d="M121 127q0 72 40 104.5t105 32.5q66 0 107 -33.5t41 -103.5q0 -68 -41 -102.5t-107 -34.5t-105.5 34.5t-39.5 102.5zM631 127q0 72 40 104.5t105 32.5q66 0 107 -33.5t41 -103.5q0 -68 -41 -102.5t-107 -34.5t-105.5 34.5t-39.5 102.5zM1126 127q0 72 40 104.5t106 32.5 t106.5 -33.5t40.5 -103.5q0 -68 -40.5 -102.5t-106.5 -34.5t-106 34.5t-40 102.5z" />
<glyph unicode="&#x202f;" horiz-adv-x="417" />
<glyph unicode="&#x2039;" horiz-adv-x="831" d="M66 549v8l426 487h251l-426 -487v-8l426 -488h-251z" />
<glyph unicode="&#x203a;" horiz-adv-x="831" d="M90 61l426 488v8l-426 487h250l426 -487v-8l-426 -488h-250z" />
<glyph unicode="&#x205f;" horiz-adv-x="521" />
<glyph unicode="&#x20ac;" horiz-adv-x="1415" d="M90 512v145h172q-2 23 -2 47.5v51.5v51t2 49h-172v148h189q51 272 237 401t541 129q94 0 158.5 -8t111.5 -13l-72 -200q-20 4 -63 8t-84 4q-139 0 -240.5 -16.5t-170 -54t-110.5 -99t-61 -151.5h629l-35 -148h-612q-2 -23 -2 -47.5v-50.5v-53.5t2 -47.5h569l-35 -145 h-514q20 -90 61.5 -151.5t111 -99.5t169 -55.5t234.5 -17.5q45 0 94 4.5t107 14.5v-209q-37 -10 -97.5 -14t-132.5 -4q-362 2 -552.5 132t-241.5 400h-191z" />
<glyph unicode="&#x2122;" horiz-adv-x="2039" d="M70 1382v134h755v-134h-297v-727h-163v727h-295zM934 655v861h205l268 -637l268 637h205v-861h-147v641l-258 -608h-134l-258 608v-641h-149z" />
<glyph unicode="&#x25fc;" horiz-adv-x="1105" d="M0 0v1106h1106v-1106h-1106z" />
</font>
</defs>
</svg>
